<svg version="1.1" id="Layer_1" xmlns="http://www.w3.org/2000/svg" xmlns:xlink="http://www.w3.org/1999/xlink" x="0px" y="0px"
	 width="100%" viewBox="0 0 1254 1254" enable-background="new 0 0 1254 1254" xml:space="preserve">
<path fill="#000000" opacity="1.000000" stroke="none" 
	d="
M798.000000,1255.000000 
	C532.000000,1255.000000 266.500000,1255.000000 1.000000,1255.000000 
	C1.000000,837.000000 1.000000,419.000000 1.000000,1.000000 
	C419.000000,1.000000 837.000000,1.000000 1255.000000,1.000000 
	C1255.000000,419.000000 1255.000000,837.000000 1255.000000,1255.000000 
	C1102.833374,1255.000000 950.666687,1255.000000 798.000000,1255.000000 
M551.083130,821.617249 
	C551.468201,821.728455 551.853271,821.839661 552.430969,822.132141 
	C552.430969,822.132141 552.682861,822.051147 552.986938,822.552429 
	C553.317566,822.732300 553.648254,822.912231 553.985962,823.019165 
	C553.985962,823.019165 553.917908,823.046326 554.269165,823.867981 
	C573.580444,823.919312 592.891724,823.980469 612.203003,823.980896 
	C612.876099,823.980896 613.549194,823.376221 614.821960,822.816467 
	C616.235107,821.546997 617.648193,820.277527 619.830322,818.731995 
	C620.226379,817.048767 620.966125,815.366028 620.968323,813.682312 
	C621.026672,769.540833 620.991577,725.399292 621.049744,681.257812 
	C621.052856,678.866150 621.726135,676.475342 622.719116,673.805237 
	C626.300415,669.572327 629.944153,665.390503 633.450378,661.096313 
	C641.648132,651.056519 649.779785,640.962769 658.753479,631.280029 
	C658.859009,632.430359 659.056519,633.580750 659.056885,634.731079 
	C659.073975,694.706665 659.069580,754.682312 659.111145,814.657898 
	C659.111938,815.835144 659.631042,817.012085 660.178833,818.793579 
	C661.742188,820.227783 663.305481,821.662048 665.278931,823.881409 
	C684.901978,823.943909 704.524963,824.016174 724.148010,824.025879 
	C724.792603,824.026184 725.437439,823.391174 726.013489,823.017944 
	C726.013489,823.017944 726.031433,823.092590 726.641174,822.983398 
	C726.892761,822.658325 727.144348,822.333252 727.610535,822.128052 
	C727.610535,822.128052 727.785156,821.955017 728.409729,821.976746 
	C728.638855,821.658325 728.867981,821.339905 729.013000,821.014709 
	C729.013000,821.014709 729.011230,821.099121 729.842224,821.014038 
	C730.542664,818.707825 731.852722,816.402466 731.855591,814.095337 
	C731.966919,725.340881 731.955811,636.586365 731.986694,547.831787 
	C731.987244,546.207031 732.298218,544.582458 733.033752,542.646362 
	C737.104004,537.519897 741.051636,532.289917 745.270996,527.289246 
	C753.174011,517.922668 761.316406,508.757935 769.209106,499.382874 
	C779.600281,487.040070 789.846863,474.575409 800.139038,462.078278 
	C800.139038,462.078278 800.052673,462.076538 800.599854,462.021973 
	C800.812012,461.735535 801.024231,461.449097 801.861572,460.872406 
	C805.530884,456.244720 809.200256,451.617004 813.144958,446.365814 
	C816.781677,441.945129 820.418335,437.524445 824.666260,432.846466 
	C825.785034,431.633331 826.903870,430.420227 828.824463,429.420502 
	C828.537720,434.432068 827.912109,439.451782 828.032715,444.453522 
	C828.307495,455.847870 831.875366,456.197845 842.639771,453.999817 
	C842.816345,453.721497 842.992859,453.443146 843.644348,452.995789 
	C843.822449,452.719482 844.000549,452.443176 844.885315,451.736664 
	C844.935791,446.120544 844.885742,440.501312 845.062012,434.889130 
	C845.284546,427.806580 846.083191,420.717712 845.865173,413.655304 
	C845.743713,409.722168 844.062256,405.837189 843.010559,401.960968 
	C843.010559,401.960968 843.063904,401.902222 842.904541,401.266815 
	C842.277527,401.148193 841.650513,401.029602 841.011902,400.982330 
	C841.011902,400.982330 841.084106,400.982147 840.761353,400.227966 
	C839.047607,399.811584 837.336792,399.049164 835.619568,399.034424 
	C823.460205,398.929993 811.298523,398.902527 799.140442,399.064575 
	C797.398987,399.087799 795.672852,400.262909 793.297668,401.188751 
	C789.450195,402.062988 789.339417,405.517395 789.130432,408.246796 
	C788.891296,411.368805 790.005859,414.395721 794.043640,415.575104 
	C794.353088,415.746094 794.662598,415.917053 794.990295,416.015656 
	C794.990295,416.015656 794.923462,416.049011 795.323730,416.837189 
	C800.705078,416.898529 806.091431,416.853088 811.464172,417.100677 
	C812.715332,417.158295 813.920593,418.212280 814.975708,419.314148 
	C814.969177,419.492188 814.962708,419.670227 814.332947,420.128204 
	C810.350159,424.118927 806.319763,428.064423 802.439575,432.152557 
	C801.901428,432.719543 802.105591,433.991119 801.336304,435.198181 
	C796.873413,440.401886 792.410522,445.605560 787.311035,451.117157 
	C784.804443,454.322784 782.448792,457.661621 779.760925,460.707245 
	C773.526489,467.771454 767.061401,474.632416 760.843994,481.711121 
	C758.954651,483.862244 757.568970,486.455688 755.435120,489.046722 
	C755.260925,489.358673 755.086670,489.670624 754.988403,489.956207 
	C754.988403,489.956207 754.955261,489.882935 754.244751,489.974976 
	C753.800781,490.635712 753.356812,491.296417 752.981079,491.987061 
	C752.981079,491.987061 752.966187,491.913971 752.432007,492.041901 
	C752.258972,492.348663 752.085938,492.655426 751.984314,492.984467 
	C751.984314,492.984467 751.960266,492.913574 751.429504,493.042847 
	C751.257507,493.348480 751.085510,493.654144 750.992798,493.991425 
	C750.992798,493.991425 750.936707,493.927094 750.296753,494.141174 
	C749.169556,495.744629 748.042358,497.348083 746.982727,498.987793 
	C746.982727,498.987793 746.963928,498.913452 746.430908,499.042358 
	C746.258301,499.349030 746.085693,499.655731 745.984497,499.984619 
	C745.984497,499.984619 745.960571,499.913788 745.430298,500.042542 
	C745.258118,500.347565 745.085938,500.652557 744.994568,500.991272 
	C744.994568,500.991272 744.933350,500.928497 744.302551,501.136810 
	C743.838318,502.080322 743.374084,503.023834 742.980042,503.985992 
	C742.980042,503.985992 742.968689,503.914154 742.432922,504.041870 
	C742.259827,504.350098 742.086792,504.658325 741.984436,504.984589 
	C741.984436,504.984589 741.965942,504.914001 741.431824,505.042175 
	C741.258911,505.349518 741.085999,505.656860 740.984192,505.984222 
	C740.984192,505.984222 740.963135,505.913452 740.431152,506.042023 
	C740.258484,506.347900 740.085815,506.653778 739.992859,506.991272 
	C739.992859,506.991272 739.936035,506.927063 739.320923,507.133148 
	C739.164062,507.751587 739.007202,508.370056 738.969971,509.058563 
	C738.969971,509.058563 739.051147,508.946289 738.639465,509.030182 
	C738.334595,509.136353 738.187622,509.350586 737.969116,510.352173 
	C736.362427,512.280151 734.755737,514.208069 732.288269,515.803162 
	C732.176086,502.626556 732.092651,489.449524 731.911987,476.273865 
	C731.891357,474.776062 731.324097,473.285797 730.791626,471.243164 
	C730.152649,470.497589 729.513672,469.752014 728.977417,468.282593 
	C728.327209,467.824768 727.677002,467.366913 727.010925,466.986420 
	C727.010925,466.986420 727.088318,466.970978 726.772095,466.203735 
	C725.433777,465.796661 724.096924,465.040863 722.756897,465.035156 
	C704.536133,464.957550 686.313782,464.889221 668.095459,465.115143 
	C666.023682,465.140808 663.974121,466.962860 661.996399,467.993042 
	C661.996399,467.993042 661.940613,467.919983 661.181396,467.981781 
	C660.759644,468.989868 660.337891,469.997955 659.989868,470.997345 
	C659.989868,470.997345 659.966064,470.927124 659.274719,471.337952 
	C659.196716,476.982208 659.054138,482.626404 659.051208,488.270691 
	C659.032898,523.516846 659.070984,558.763123 659.008179,594.009155 
	C659.002136,597.407288 658.434753,600.804443 657.710876,604.742065 
	C656.631958,606.141113 655.636169,607.614868 654.459106,608.925720 
	C650.369080,613.480530 646.035767,617.828979 642.126892,622.531738 
	C635.301331,630.743530 628.722168,639.160095 621.177795,647.588196 
	C621.120117,615.697144 621.076477,583.806030 620.964966,551.915161 
	C620.959167,550.250061 620.375732,548.586975 620.003235,546.999817 
	C620.003235,546.999817 620.098328,546.983826 619.915894,546.372986 
	C619.593506,546.094604 619.271118,545.816223 619.002625,545.460144 
	C619.002625,545.460144 618.946167,545.384338 618.979370,544.716309 
	C618.667114,544.448120 618.354919,544.179871 618.001770,543.997986 
	C618.001770,543.997986 618.090210,543.961914 617.807129,543.240112 
	C615.916626,542.513245 614.031555,541.171265 612.134766,541.154602 
	C593.396667,540.989319 574.656311,541.004456 555.917542,541.119446 
	C554.577515,541.127686 553.244873,542.323730 551.998169,542.996643 
	C551.998169,542.996643 551.971558,542.906433 551.431702,543.041809 
	C551.256714,543.353577 551.081726,543.665283 550.997192,543.997009 
	C550.997192,543.997009 550.978394,543.906250 550.441406,544.044067 
	C550.263062,544.352844 550.084778,544.661621 549.997131,544.997375 
	C549.997131,544.997375 549.968689,544.907227 549.438904,545.036682 
	C549.263367,545.339722 549.087769,545.642700 548.999023,546.000183 
	C548.999023,546.000183 548.931885,545.923767 548.197937,546.268982 
	C547.791565,548.147034 547.033203,550.024597 547.030396,551.903259 
	C546.963928,596.251343 546.967896,640.599426 547.025330,684.947510 
	C547.027344,686.478271 547.714233,688.008057 548.043945,689.492676 
	C548.043945,689.492676 548.023560,689.548401 547.486206,689.917297 
	C547.262817,690.271729 547.039429,690.626221 546.169922,691.295898 
	C545.164490,691.818970 544.185059,692.401245 543.149597,692.855896 
	C534.769165,696.535828 526.378113,700.191833 517.264954,703.969910 
	C514.877502,705.677368 512.490051,707.384827 509.386353,708.734070 
	C509.338043,707.430786 509.289703,706.127563 509.897003,704.419800 
	C510.271576,703.580688 510.970490,702.742676 510.973175,701.902344 
	C511.035034,682.757141 511.124298,663.610779 510.961029,644.466675 
	C510.908295,638.286255 505.351593,633.063354 499.098663,633.018127 
	C483.783081,632.907410 468.462097,632.787720 453.152832,633.116699 
	C449.415436,633.197021 445.714844,634.990723 441.351471,636.012024 
	C440.874054,636.315918 440.396667,636.619812 439.416687,637.049316 
	C439.251495,637.338989 439.086304,637.628601 438.196136,638.232666 
	C437.791229,639.081726 437.046295,639.926331 437.034943,640.780640 
	C436.939911,647.928040 436.978912,655.077332 436.978882,662.226013 
	C436.978668,712.876648 436.955170,763.527344 437.065491,814.177734 
	C437.069885,816.196960 438.346527,818.213379 439.189667,820.789062 
	C439.535004,820.939392 439.880341,821.089783 440.446136,821.556335 
	C440.627808,821.745850 440.840302,821.890015 440.993469,821.939819 
	C440.993469,821.939819 440.931274,822.021362 441.169434,822.825623 
	C442.512238,823.238647 443.853973,824.006897 445.198059,824.011108 
	C463.852020,824.069214 482.506378,824.036499 501.160370,823.963135 
	C502.174622,823.959106 503.186676,823.400879 504.845459,822.803894 
	C506.163513,821.299194 508.040283,819.991882 508.659119,818.240112 
	C509.442871,816.021484 509.203766,813.441528 509.939636,810.395386 
	C510.279602,793.249817 510.753265,776.105408 510.898438,758.958191 
	C510.963013,751.324951 510.365784,743.686157 510.004181,735.998779 
	C510.004181,735.998779 510.056335,736.062195 510.730072,735.900574 
	C510.961273,735.259521 511.192474,734.618408 511.991577,733.686218 
	C516.255188,728.603027 520.518738,723.519836 524.747131,718.399658 
	C524.747131,718.399658 524.788879,718.411316 525.010132,718.358765 
	C525.010132,718.358765 525.082153,718.143066 525.813293,718.033508 
	C532.856567,714.722046 539.890808,711.390808 546.971069,708.160522 
	C547.306641,708.007446 548.050781,708.749817 548.886597,709.703369 
	C548.897034,710.161438 548.907471,710.619507 548.204407,711.421692 
	C547.795898,713.290649 547.035828,715.158752 547.031372,717.028687 
	C546.957703,747.970459 546.885437,778.913086 547.110840,809.853394 
	C547.135742,813.275757 548.982178,816.684814 549.987671,820.011963 
	C549.987671,820.011963 549.899414,820.012390 550.049622,820.557495 
	C550.365784,820.738342 550.681885,820.919189 550.994629,821.007751 
	C550.994629,821.007751 550.902466,821.013733 551.083130,821.617249 
M559.317566,835.996948 
	C558.884521,836.051086 558.451416,836.105225 557.091736,835.992859 
	C544.412903,836.050659 531.734009,836.108459 518.208557,836.010254 
	C516.489258,835.963745 514.770020,835.917297 512.618408,835.117676 
	C491.233917,835.071533 469.849426,835.014954 448.464935,835.018005 
	C447.622284,835.018127 446.779694,835.586914 445.051331,835.931335 
	C442.384003,835.920654 439.716675,835.909973 436.636017,835.131653 
	C424.162750,835.094299 411.688995,835.099792 399.216705,834.969604 
	C397.509552,834.951782 395.809448,834.259277 394.062592,833.403076 
	C394.062592,833.403076 393.877686,832.962097 393.934479,832.028198 
	C394.291534,810.531128 394.653900,789.034119 394.999237,767.536865 
	C395.044525,764.717163 394.900818,761.891357 395.029144,759.076782 
	C395.161865,756.166077 394.148590,754.764099 391.021423,754.956482 
	C387.386169,755.180176 383.732239,755.100891 379.522797,755.035217 
	C379.306488,755.334167 379.090210,755.633118 378.119263,756.378540 
	C378.072662,787.112427 378.018402,817.846313 378.023621,848.580200 
	C378.023773,849.345093 378.682159,850.109924 379.960938,850.983887 
	C540.502258,850.983887 701.043518,850.983887 861.584839,850.983643 
	C865.914795,850.983643 870.249512,851.086670 874.570740,850.891724 
	C875.448303,850.852112 876.275085,849.684692 877.886475,848.610718 
	C877.931152,818.270203 877.986633,787.929749 877.963379,757.589294 
	C877.962769,756.748901 877.116821,755.909180 875.784241,754.937073 
	C871.220154,754.998108 866.656006,755.059204 861.209045,755.293457 
	C861.133728,767.578796 861.042603,779.864197 861.026306,792.149597 
	C861.025452,792.816040 861.650879,793.483337 861.942871,795.067871 
	C861.945129,808.012268 861.947388,820.956665 861.173035,834.255371 
	C859.273193,834.510559 857.373413,834.988098 855.473511,834.988831 
	C792.816528,835.013733 730.159546,834.986633 667.502563,835.016663 
	C665.990540,835.017395 664.478699,835.580933 662.053772,835.981689 
	C658.364807,836.043762 654.675903,836.105835 650.060242,836.030762 
	C642.052490,835.977234 634.044800,835.923706 625.614319,835.115479 
	C604.405029,835.070679 583.195801,835.017456 561.986511,835.019165 
	C561.312622,835.019226 560.638733,835.583374 559.317566,835.996948 
M862.936829,455.015045 
	C867.669617,454.699341 872.402344,454.383606 877.885254,453.615601 
	C877.930420,422.904388 877.982849,392.193176 877.983215,361.481964 
	C877.983215,360.632599 877.424805,359.783264 876.698853,358.155457 
	C876.037048,358.101532 875.375244,358.000427 874.713440,358.000366 
	C710.775391,357.984802 546.837280,357.974030 382.899231,358.006500 
	C381.555908,358.006775 380.212708,358.595978 378.121643,359.373108 
	C378.074066,390.253815 378.009186,421.134521 378.060333,452.015076 
	C378.061890,452.963806 379.269440,453.910522 380.844788,454.980896 
	C384.912323,454.929749 388.979858,454.878571 393.814362,454.646606 
	C394.195282,452.136017 394.871460,449.626373 394.879730,447.114563 
	C394.889282,444.204193 394.045410,441.293152 394.032379,438.380341 
	C393.947754,419.457733 393.939728,400.534332 394.045959,381.611969 
	C394.060181,379.080017 394.859619,376.552460 395.651306,374.037415 
	C395.651306,374.037415 395.965485,373.869781 396.909790,373.964264 
	C409.531952,373.977783 422.154114,374.018005 434.776245,373.999176 
	C460.181885,373.961304 485.587463,373.891235 511.926392,373.957397 
	C530.956543,373.930023 549.986755,373.902649 569.396912,374.029053 
	C569.396912,374.029053 569.806641,374.012909 570.259583,374.789276 
	C570.750549,374.864441 571.241516,375.005310 571.732483,375.005463 
	C606.046021,375.017883 640.359558,375.029083 674.673035,374.978607 
	C675.848755,374.976868 677.023621,374.346954 678.597473,374.035004 
	C678.597473,374.035004 678.964233,373.876709 679.908813,373.977936 
	C698.941772,373.931274 717.974792,373.884613 737.929688,374.012238 
	C775.911987,374.001160 813.894226,373.978271 851.876526,373.985870 
	C864.113525,373.988312 861.732056,373.125336 861.984497,384.416779 
	C861.984497,384.416779 861.969238,384.870117 861.186462,385.291443 
	C861.118286,407.883240 861.041992,430.475037 861.025696,453.066864 
	C861.025269,453.668732 861.675232,454.271027 862.936829,455.015045 
z"/>
<path fill="#137A5C" opacity="1.000000" stroke="none" 
	d="
M619.061279,819.008057 
	C617.648193,820.277527 616.235107,821.546997 614.043823,822.865601 
	C593.483032,822.958618 573.700500,823.002441 553.917908,823.046326 
	C553.917908,823.046326 553.985962,823.019165 553.986938,822.711426 
	C553.552979,822.286194 553.117920,822.168640 552.682861,822.051147 
	C552.682861,822.051147 552.430969,822.132141 552.281860,821.696045 
	C551.722717,821.177856 551.312561,821.095825 550.902466,821.013794 
	C550.902466,821.013733 550.994629,821.007751 551.043823,820.694580 
	C550.695190,820.258362 550.297302,820.135376 549.899414,820.012390 
	C549.899414,820.012390 549.987671,820.011963 550.101685,819.631165 
	C549.769531,817.491821 548.942566,815.734375 548.937256,813.974487 
	C548.892639,799.319153 548.999390,784.663391 549.462646,770.005005 
	C554.463806,768.523987 559.418884,767.676147 563.538208,765.348999 
	C566.355408,763.757446 568.347778,763.628723 571.176392,764.471497 
	C574.369141,765.422729 578.394775,767.179321 580.934204,766.052551 
	C588.803406,762.560913 597.162354,760.979675 605.097046,762.446716 
	C610.621216,763.468079 615.120544,764.732239 619.823364,761.484802 
	C619.618896,780.967102 619.340088,799.987549 619.061279,819.008057 
z"/>
<path fill="#137A5C" opacity="1.000000" stroke="none" 
	d="
M727.785156,821.955017 
	C727.785156,821.955017 727.610535,822.128052 727.121216,822.056946 
	C726.431702,822.354736 726.231567,822.723694 726.031433,823.092590 
	C726.031433,823.092590 726.013489,823.017944 725.598450,822.867065 
	C723.026733,822.832336 720.870239,823.044922 718.713318,823.049377 
	C700.765198,823.086731 682.817017,823.085693 664.868835,823.096191 
	C663.305481,821.662048 661.742188,820.227783 660.158875,818.021484 
	C660.110962,804.838501 660.083008,792.427551 660.396851,780.076721 
	C663.022156,783.140320 664.037048,783.698303 666.645020,779.603088 
	C669.944275,774.422302 673.993225,768.611938 681.990784,769.988159 
	C690.081482,771.380432 698.197632,772.624451 707.055847,774.055115 
	C707.466309,772.029175 708.000183,769.393616 708.568176,766.590027 
	C710.305115,766.680359 712.114868,767.068726 713.825317,766.807312 
	C718.637207,766.072144 723.408203,765.069519 728.995117,764.022522 
	C728.995117,753.851196 728.995117,742.426819 729.295654,731.002075 
	C729.996704,731.006897 730.397339,731.012146 730.887573,731.477234 
	C731.008545,757.174744 731.140198,782.413025 730.977600,807.649414 
	C730.948730,812.136719 729.697815,816.616089 729.011230,821.099121 
	C729.011230,821.099121 729.013000,821.014709 728.715210,820.899963 
	C728.206665,821.175110 727.995911,821.565063 727.785156,821.955017 
z"/>
<path fill="#36BA7D" opacity="1.000000" stroke="none" 
	d="
M728.874695,469.006409 
	C729.513672,469.752014 730.152649,470.497589 730.578430,471.732666 
	C730.500183,482.820312 730.635132,493.418488 730.398438,504.133301 
	C729.469543,508.368530 728.912231,512.487122 728.215576,517.635742 
	C722.404236,512.774658 716.171448,520.631653 710.795715,516.906677 
	C713.640930,513.414856 716.056641,510.450165 718.472351,507.485443 
	C718.060913,506.817139 717.649475,506.148804 717.238037,505.480499 
	C712.857117,506.480103 708.477966,507.487488 704.094849,508.477417 
	C697.386597,509.992462 690.614075,511.275665 683.999878,513.125916 
	C681.759216,513.752686 679.842102,515.705933 677.909912,517.222290 
	C675.577515,519.052612 673.650208,521.650269 671.053833,522.816650 
	C668.822388,523.819153 665.896606,523.276062 663.387390,523.410522 
	C662.239258,521.914856 661.127014,520.466003 659.942139,518.552002 
	C659.901733,502.366913 659.933899,486.647003 659.966064,470.927124 
	C659.966064,470.927124 659.989868,470.997345 660.311829,470.950623 
	C661.069397,469.909302 661.505005,468.914642 661.940613,467.919983 
	C661.940613,467.919983 661.996399,467.993042 662.336304,468.131104 
	C664.701355,467.563202 666.730164,466.236115 668.751221,466.247803 
	C688.197632,466.360016 707.642822,466.697784 727.088318,466.971008 
	C727.088318,466.970978 727.010925,466.986420 726.956848,467.258240 
	C727.560059,468.022186 728.217407,468.514282 728.874695,469.006409 
z"/>
<path fill="#BE983E" opacity="1.000000" stroke="none" 
	d="
M861.949646,833.901062 
	C861.947388,820.956665 861.945129,808.012268 862.050903,794.137329 
	C862.136536,780.511230 862.114197,767.815796 862.091919,755.120300 
	C866.656006,755.059204 871.220154,754.998108 876.146118,755.409424 
	C876.328674,760.268860 876.149475,764.655823 875.695679,769.348145 
	C875.289246,771.626587 875.047058,773.599609 875.042603,775.573120 
	C874.991699,798.145142 874.842346,820.718506 875.063354,843.288147 
	C875.109070,847.954651 873.695862,849.193604 869.192871,849.075867 
	C863.159668,848.918152 857.104553,849.599731 850.590393,849.987183 
	C839.717590,849.998047 829.313293,849.942749 818.661499,849.638855 
	C816.639954,849.555298 814.865845,849.720215 812.622192,849.958862 
	C784.795959,849.991150 757.439270,849.949768 730.376404,849.632568 
	C737.626221,849.979980 743.368408,848.414062 747.057861,841.655151 
	C748.283325,839.409973 750.999756,837.978638 753.497742,836.118164 
	C771.625977,836.036865 789.291016,836.016357 806.955994,835.987305 
	C823.954285,835.959351 840.953003,835.967102 857.950073,835.804260 
	C859.289246,835.791382 860.616699,834.564026 861.949646,833.901062 
z"/>
<path fill="#1B8F64" opacity="1.000000" stroke="none" 
	d="
M548.917908,711.077576 
	C548.907471,710.619507 548.897034,710.161438 548.893921,709.041626 
	C549.702942,707.619934 550.373596,706.561157 551.325439,706.143799 
	C573.810425,696.286560 596.325623,686.498474 618.942566,676.950317 
	C619.292847,677.467407 619.535950,677.731995 619.833313,678.462524 
	C619.830383,695.288269 619.773132,711.648071 619.369995,728.019409 
	C617.526001,729.648987 616.027832,731.267029 615.019958,732.355530 
	C608.406921,730.208313 602.458313,727.886597 596.306213,726.416565 
	C592.203186,725.436157 587.501404,724.545654 583.616638,725.613159 
	C577.212708,727.372986 571.253784,730.751526 565.105835,733.444519 
	C560.707886,735.370850 556.307495,737.291626 550.999878,739.612061 
	C550.999878,734.584534 551.163086,730.781006 550.913574,727.004700 
	C550.823303,725.638489 549.744690,724.337463 549.024231,722.555054 
	C548.926880,718.428162 548.922363,714.752869 548.917908,711.077576 
z"/>
<path fill="#A57C19" opacity="1.000000" stroke="none" 
	d="
M861.969238,384.870117 
	C861.969238,384.870117 861.984497,384.416779 862.304077,383.872986 
	C862.711548,382.674683 862.877563,382.019958 862.875610,381.365723 
	C862.847351,371.889343 864.049805,373.040009 854.874023,373.008240 
	C831.296875,372.926605 807.719666,372.879639 784.148621,372.469849 
	C784.112915,370.587738 784.261414,369.019745 783.988342,367.528961 
	C783.470154,364.700806 782.710388,361.916901 782.515625,359.085938 
	C814.022095,359.035461 845.064026,359.013641 876.196045,359.453766 
	C876.202026,391.272064 876.117920,422.628418 875.567932,453.985596 
	C871.087341,453.939148 867.072693,453.891907 862.968018,453.671143 
	C862.787415,453.236176 862.617249,453.045990 862.342407,452.463959 
	C862.293701,449.680145 862.259155,447.359406 862.248108,445.038544 
	C862.152771,424.982391 862.061584,404.926270 861.969238,384.870117 
z"/>
<path fill="#E3C26F" opacity="1.000000" stroke="none" 
	d="
M800.155579,462.163116 
	C789.846863,474.575409 779.600281,487.040070 769.209106,499.382874 
	C761.316406,508.757935 753.174011,517.922668 745.270996,527.289246 
	C741.051636,532.289917 737.104004,537.519897 732.478577,542.919250 
	C731.304321,543.613342 730.685242,544.034485 729.820251,544.722473 
	C722.442505,553.353088 715.310669,561.716919 707.745117,570.055176 
	C702.045776,568.974426 696.780151,567.919250 691.659119,566.535156 
	C693.606934,563.583984 695.410217,560.961731 697.552002,558.261719 
	C709.001953,545.106934 720.113342,532.029907 731.458374,518.774353 
	C732.177734,517.775879 732.663391,516.955994 733.149109,516.136047 
	C734.755737,514.208069 736.362427,512.280151 738.247620,509.915649 
	C738.592468,509.194946 738.767517,509.017334 739.051147,508.946289 
	C739.051147,508.946289 738.969971,509.058563 739.256348,508.934235 
	C739.673828,508.182281 739.804932,507.554688 739.936035,506.927063 
	C739.936035,506.927063 739.992859,506.991272 740.271851,507.001038 
	C740.688293,506.644989 740.825684,506.279236 740.963135,505.913452 
	C740.963135,505.913452 740.984192,505.984222 741.262451,505.985992 
	C741.682434,505.629852 741.824219,505.271942 741.965942,504.914001 
	C741.965942,504.914001 741.984436,504.984589 742.259766,504.981873 
	C742.679626,504.624146 742.824158,504.269165 742.968689,503.914154 
	C742.968689,503.914154 742.980042,503.985992 743.317871,503.982727 
	C744.081543,502.962494 744.507446,501.945496 744.933350,500.928497 
	C744.933350,500.928497 744.994568,500.991272 745.276733,501.007935 
	C745.692749,500.654297 745.826660,500.284058 745.960571,499.913788 
	C745.960571,499.913788 745.984497,499.984619 746.265259,499.990906 
	C746.685364,499.635925 746.824646,499.274689 746.963928,498.913452 
	C746.963928,498.913452 746.982727,498.987793 747.309692,499.045410 
	C748.736755,497.377716 749.836731,495.652405 750.936707,493.927124 
	C750.936707,493.927094 750.992798,493.991425 751.274536,494.002258 
	C751.690857,493.646606 751.825562,493.280090 751.960266,492.913574 
	C751.960266,492.913574 751.984314,492.984467 752.263733,492.990784 
	C752.684143,492.636047 752.825195,492.274994 752.966187,491.913971 
	C752.966187,491.913971 752.981079,491.987061 753.295410,492.020752 
	C754.058228,491.330627 754.506714,490.606781 754.955261,489.882935 
	C754.955261,489.882935 754.988403,489.956207 755.241699,489.923309 
	C755.647522,489.542480 755.800110,489.194519 755.952637,488.846558 
	C757.568970,486.455688 758.954651,483.862244 760.843994,481.711121 
	C767.061401,474.632416 773.526489,467.771454 779.760925,460.707245 
	C782.448792,457.661621 784.804443,454.322784 787.684326,451.324280 
	C790.844910,456.492371 793.126038,462.029358 800.155579,462.163116 
z"/>
<path fill="#BE983E" opacity="1.000000" stroke="none" 
	d="
M395.965485,373.869812 
	C395.965485,373.869781 395.651306,374.037415 395.038635,373.998901 
	C393.953705,375.430908 393.073914,376.900299 393.069794,378.372162 
	C392.998352,403.857056 393.034637,429.342285 393.047394,454.827423 
	C388.979858,454.878571 384.912323,454.929749 380.358948,454.460449 
	C379.897980,422.292725 379.922852,390.645416 380.419678,358.993958 
	C408.577393,359.039703 436.263153,359.089630 463.959839,359.525696 
	C462.937286,360.933197 461.918640,362.813690 460.867889,362.831787 
	C455.413635,362.925690 456.989777,366.510101 457.392517,369.392242 
	C457.563019,370.612579 458.402618,371.739380 458.473572,372.922058 
	C439.242950,372.946472 420.476746,372.931610 401.710846,373.007782 
	C399.794586,373.015533 397.880554,373.569366 395.965485,373.869812 
z"/>
<path fill="#137A5C" opacity="1.000000" stroke="none" 
	d="
M440.225677,821.240112 
	C439.880341,821.089783 439.535004,820.939392 439.190063,820.103638 
	C439.035309,818.885620 438.880157,818.352905 438.912811,817.540405 
	C445.686554,809.816589 452.272522,802.372681 459.268616,794.957092 
	C467.430176,796.817566 468.299591,796.505493 471.338470,789.281128 
	C472.788208,785.834717 475.258392,785.635437 478.247955,786.238403 
	C482.440582,787.084045 487.021240,789.500488 490.722473,788.528503 
	C497.508942,786.746277 503.301453,786.927429 509.006592,791.490845 
	C509.183075,798.308228 509.294403,804.662842 509.405762,811.017395 
	C509.203766,813.441528 509.442871,816.021484 508.659119,818.240112 
	C508.040283,819.991882 506.163513,821.299194 504.055939,822.822388 
	C493.175110,822.907227 483.081604,823.133240 472.993042,822.996277 
	C462.303345,822.851135 451.618347,822.360901 440.931274,822.021362 
	C440.931274,822.021362 440.993469,821.939819 440.800812,821.983459 
	C440.258789,821.872131 440.131317,821.609802 440.225677,821.240112 
z"/>
<path fill="#D0AB53" opacity="1.000000" stroke="none" 
	d="
M458.858490,794.928711 
	C452.272522,802.372681 445.686554,809.816589 438.697723,817.217773 
	C438.261383,809.752930 438.227936,802.330933 438.484375,794.768982 
	C454.261841,776.440918 469.749451,758.252686 485.515320,739.895874 
	C490.709778,733.862976 495.625916,727.998840 500.810181,721.963135 
	C504.086426,717.558533 507.094513,713.325439 510.102600,709.092285 
	C512.490051,707.384827 514.877502,705.677368 517.496460,704.174255 
	C518.561157,707.749146 519.040283,711.268982 520.372070,714.429382 
	C521.071777,716.089783 523.264038,717.121216 524.782349,718.436646 
	C520.518738,723.519836 516.255188,728.603027 511.355957,733.952637 
	C510.498993,734.833496 510.277679,735.447815 510.056335,736.062195 
	C510.056335,736.062195 510.004181,735.998779 509.808533,735.987915 
	C509.314484,736.095093 509.084076,736.292480 508.638123,736.779785 
	C491.855927,756.303101 475.357208,775.615906 458.858490,794.928711 
z"/>
<path fill="#29A472" opacity="1.000000" stroke="none" 
	d="
M509.744507,708.913208 
	C507.094513,713.325439 504.086426,717.558533 500.408691,721.908813 
	C499.142700,721.759216 498.377594,721.645691 497.975464,721.202637 
	C492.364471,715.020508 492.433472,715.164795 484.551270,718.051086 
	C482.935120,718.642761 480.486755,718.047119 478.823181,717.205627 
	C474.954590,715.248962 471.472961,713.916748 467.250427,716.668457 
	C465.542206,717.781677 462.193390,718.447754 460.752502,717.517822 
	C456.189606,714.572815 451.531342,715.618713 446.877563,716.075989 
	C443.972473,716.361511 441.135895,717.344666 438.190918,717.551147 
	C438.164795,706.731079 438.216278,696.374695 438.616150,686.021973 
	C440.209106,686.748474 441.702301,687.233337 442.658600,688.232300 
	C449.778534,695.669556 457.977356,695.543579 467.158539,692.768311 
	C471.740967,691.383118 476.901184,692.029846 481.742920,691.350403 
	C487.379456,690.559448 491.674774,695.623657 498.169861,693.578491 
	C503.932404,691.764038 508.665527,690.985962 509.148621,684.451904 
	C509.232330,691.551880 509.236847,698.188049 509.241333,704.824280 
	C509.289703,706.127563 509.338043,707.430786 509.744507,708.913208 
z"/>
<path fill="#36BA7D" opacity="1.000000" stroke="none" 
	d="
M618.946167,545.384338 
	C618.946167,545.384338 619.002625,545.460144 619.028442,545.876221 
	C619.402222,546.522827 619.750305,546.753357 620.098328,546.983826 
	C620.098328,546.983826 620.003235,546.999817 619.817383,547.303711 
	C619.657410,548.409363 619.683350,549.211121 619.344849,550.012939 
	C613.623230,550.546143 614.360657,555.794617 612.171387,558.781433 
	C611.091309,560.254944 610.090454,561.951416 608.644165,562.958923 
	C605.168701,565.379822 601.536682,567.614624 597.794983,569.598511 
	C595.962830,570.569946 593.529968,571.680786 591.740601,571.235413 
	C584.824036,569.513672 578.238342,565.661865 570.775208,568.960632 
	C570.372375,569.138794 569.780151,568.827576 569.296875,568.894409 
	C565.962341,569.355530 562.508667,569.462585 559.340637,570.465210 
	C556.647827,571.317383 554.286438,573.216919 550.998840,575.099426 
	C550.998840,572.218140 551.239136,570.075378 550.924622,568.017395 
	C550.661804,566.297424 549.749817,564.676758 549.036804,562.550659 
	C548.942871,556.700745 548.937378,551.312256 548.931885,545.923767 
	C548.931885,545.923767 548.999023,546.000183 549.312012,546.134705 
	C549.739502,545.815247 549.854126,545.361206 549.968689,544.907227 
	C549.968689,544.907227 549.997131,544.997375 550.292114,545.048584 
	C550.717468,544.701904 550.847900,544.304077 550.978394,543.906250 
	C550.978394,543.906250 550.997192,543.997009 551.296021,544.033569 
	C551.720459,543.682190 551.846008,543.294312 551.971558,542.906433 
	C551.971558,542.906433 551.998169,542.996643 552.379578,543.079956 
	C555.511780,542.720398 558.259216,541.920532 561.013855,541.895020 
	C574.586548,541.769104 588.165527,541.652771 601.732971,541.951355 
	C607.197510,542.071533 612.638489,543.259766 618.090210,543.961914 
	C618.090210,543.961914 618.001770,543.997986 617.902100,544.301392 
	C618.183655,544.864685 618.564941,545.124512 618.946167,545.384338 
z"/>
<path fill="#A57C19" opacity="1.000000" stroke="none" 
	d="
M393.877686,832.962097 
	C393.877686,832.962097 394.062592,833.403076 393.985535,833.888000 
	C393.859253,834.543152 393.810028,834.713440 393.634766,835.031616 
	C393.717743,835.419006 393.926697,835.658508 394.592834,835.953369 
	C409.049805,835.972290 423.049591,835.935791 437.049347,835.899292 
	C439.716675,835.909973 442.384003,835.920654 445.902466,836.010437 
	C448.148712,836.139709 449.543884,836.189819 451.017212,836.595764 
	C452.289978,837.637939 453.408630,838.673340 454.691864,838.952637 
	C461.586609,840.453552 462.860992,841.862183 462.885406,848.415039 
	C464.289856,848.942261 465.630310,849.445496 466.505310,849.976318 
	C437.295288,850.014343 408.550751,850.024719 379.739655,849.567688 
	C379.754303,830.056396 379.835510,811.012451 380.286835,791.952087 
	C383.299805,791.154297 385.400055,791.478760 387.486847,793.743591 
	C388.705261,795.065857 391.096222,795.307678 392.966492,796.502075 
	C393.016510,805.068848 392.985535,813.170654 393.135071,821.269104 
	C393.207092,825.170044 393.619446,829.064636 393.877686,832.962097 
z"/>
<path fill="#D0AB53" opacity="1.000000" stroke="none" 
	d="
M657.938171,630.890869 
	C649.779785,640.962769 641.648132,651.056519 633.450378,661.096313 
	C629.944153,665.390503 626.300415,669.572327 622.099121,673.955994 
	C620.943359,674.715271 620.407532,675.323853 619.651611,675.932861 
	C619.431519,675.933411 618.992676,675.896790 618.957031,675.550171 
	C616.907837,669.507690 612.554504,666.750305 607.139587,665.419922 
	C611.649231,660.421326 615.917236,655.632324 620.473083,650.659912 
	C621.187195,649.481323 621.613525,648.486145 622.039795,647.490906 
	C628.722168,639.160095 635.301331,630.743530 642.126892,622.531738 
	C646.035767,617.828979 650.369080,613.480530 654.459106,608.925720 
	C655.636169,607.614868 656.631958,606.141113 658.213928,604.436646 
	C659.182678,603.803223 659.648315,603.475220 660.396240,602.967041 
	C665.047852,597.821838 669.417175,592.856873 674.107483,588.050171 
	C678.335815,590.589722 682.243225,592.970947 686.153809,595.697266 
	C685.233582,597.380493 684.402710,598.795105 683.371887,600.044678 
	C675.945190,609.047363 668.477905,618.016479 660.752625,627.174805 
	C660.186584,628.139648 659.891479,628.926025 659.325378,629.766357 
	C658.682312,630.177246 658.310242,630.534058 657.938171,630.890869 
z"/>
<path fill="#BE983E" opacity="1.000000" stroke="none" 
	d="
M606.898010,665.629456 
	C612.554504,666.750305 616.907837,669.507690 618.914307,675.749878 
	C618.907227,676.296204 618.835327,676.697754 618.835327,676.697754 
	C596.325623,686.498474 573.810425,696.286560 551.325439,706.143799 
	C550.373596,706.561157 549.702942,707.619934 548.752991,708.727539 
	C548.050781,708.749817 547.306641,708.007446 546.971069,708.160522 
	C539.890808,711.390808 532.856567,714.722046 525.325378,717.906189 
	C524.695801,717.752197 524.554138,717.725525 524.412476,717.698853 
	C524.537964,717.936340 524.663452,718.173828 524.788879,718.411316 
	C524.788879,718.411316 524.747131,718.399658 524.764771,718.418152 
	C523.264038,717.121216 521.071777,716.089783 520.372070,714.429382 
	C519.040283,711.268982 518.561157,707.749146 517.859131,704.116882 
	C526.378113,700.191833 534.769165,696.535828 543.149597,692.855896 
	C544.185059,692.401245 545.164490,691.818970 546.887573,691.124023 
	C547.744751,690.484253 547.884155,690.016357 548.023560,689.548401 
	C548.023560,689.548401 548.043945,689.492676 548.276367,689.621704 
	C548.508789,689.750793 548.957581,689.589294 549.234741,689.750366 
	C551.830750,689.050415 554.190857,688.285645 556.461853,687.313049 
	C573.283813,680.108337 590.088135,672.862427 606.898010,665.629456 
z"/>
<path fill="#BE983E" opacity="1.000000" stroke="none" 
	d="
M828.022644,429.207092 
	C826.903870,430.420227 825.785034,431.633331 824.340332,432.599731 
	C823.413757,431.257629 822.935242,430.070007 822.189941,429.083984 
	C819.832336,425.964874 817.374939,422.921173 814.956177,419.848267 
	C814.962708,419.670227 814.969177,419.492188 815.356079,418.907288 
	C816.151611,417.775116 816.566772,417.049835 817.101257,416.115997 
	C815.831726,415.904694 814.938110,415.755981 813.935669,415.484558 
	C813.492493,415.199951 813.205811,415.264832 812.607483,415.604004 
	C810.803101,415.526337 809.357727,415.401123 807.931335,414.863525 
	C806.378113,410.006012 804.805908,405.560913 803.713013,401.069031 
	C816.489563,401.008850 828.786865,400.995483 841.084106,400.982117 
	C841.084106,400.982147 841.011902,400.982330 841.088257,401.307678 
	C841.797729,401.722748 842.430847,401.812469 843.063904,401.902222 
	C843.063904,401.902222 843.010559,401.960968 842.878357,402.349915 
	C843.171570,404.661133 843.958862,406.582336 843.964172,408.505737 
	C844.000305,421.608002 843.871887,434.710693 843.561401,447.551086 
	C842.702942,442.063660 837.118958,437.678589 830.113281,436.499725 
	C830.074280,433.191467 830.074280,430.326965 830.074280,427.462494 
	C829.655090,427.422211 829.235901,427.381927 828.816711,427.341644 
	C828.552002,427.963470 828.287354,428.585266 828.022644,429.207092 
z"/>
<path fill="#BE983E" opacity="1.000000" stroke="none" 
	d="
M466.970764,849.948608 
	C465.630310,849.445496 464.289856,848.942261 462.885406,848.415039 
	C462.860992,841.862183 461.586609,840.453552 454.691864,838.952637 
	C453.408630,838.673340 452.289978,837.637939 451.482544,836.503174 
	C472.263397,835.993469 492.657043,835.932129 513.050720,835.870850 
	C514.770020,835.917297 516.489258,835.963745 518.882324,836.327148 
	C525.252808,839.051453 531.397461,840.756531 534.218506,847.278015 
	C534.612305,848.188416 536.499451,848.763977 537.767944,848.926208 
	C541.475891,849.400269 545.220520,849.586975 548.487671,849.918640 
	C530.314087,849.928589 512.603638,849.906250 494.590881,849.616089 
	C487.208282,849.548645 480.128021,849.748962 472.617493,850.014160 
	C470.448395,850.035522 468.709564,849.992065 466.970764,849.948608 
z"/>
<path fill="#E3C26F" opacity="1.000000" stroke="none" 
	d="
M626.037048,835.870117 
	C634.044800,835.923706 642.052490,835.977234 650.525818,836.483398 
	C649.781982,838.601990 648.700562,841.571411 647.340698,841.704834 
	C641.907227,842.238342 640.292175,844.989136 640.564697,849.944336 
	C635.375610,849.960144 630.655090,849.942200 625.757935,849.692505 
	C624.744507,849.612549 623.907776,849.764404 622.599121,849.946106 
	C616.074341,849.956665 610.021484,849.937317 603.982666,849.511475 
	C604.464111,845.666565 603.364563,843.444153 599.978210,841.772278 
	C597.898315,840.745361 596.615845,838.103333 595.441711,836.125000 
	C605.951111,835.998901 615.994080,835.934509 626.037048,835.870117 
z"/>
<path fill="#DBB761" opacity="1.000000" stroke="none" 
	d="
M569.806641,374.012909 
	C569.806641,374.012909 569.396912,374.029053 568.946594,373.711212 
	C567.323120,373.248871 566.150024,373.104340 564.973633,372.557129 
	C564.962891,367.823547 564.955383,363.492645 565.417542,359.115051 
	C579.576111,359.086517 593.264893,359.104675 606.971008,359.513794 
	C606.632141,364.399048 606.276001,368.893250 605.472229,373.503143 
	C593.285339,373.750183 581.545959,373.881561 569.806641,374.012909 
z"/>
<path fill="#D0AB53" opacity="1.000000" stroke="none" 
	d="
M548.950806,849.886353 
	C545.220520,849.586975 541.475891,849.400269 537.767944,848.926208 
	C536.499451,848.763977 534.612305,848.188416 534.218506,847.278015 
	C531.397461,840.756531 525.252808,839.051453 519.305664,836.405212 
	C531.734009,836.108459 544.412903,836.050659 557.651428,836.438843 
	C560.966064,838.347290 563.685608,839.407837 566.450256,836.143555 
	C568.570740,836.121765 570.269409,836.151978 572.037964,836.542114 
	C576.078735,841.283813 572.613708,845.587097 571.504333,849.943604 
	C563.675659,849.940125 556.313232,849.913208 548.950806,849.886353 
z"/>
<path fill="#DBB761" opacity="1.000000" stroke="none" 
	d="
M641.033264,849.910461 
	C640.292175,844.989136 641.907227,842.238342 647.340698,841.704834 
	C648.700562,841.571411 649.781982,838.601990 650.989136,836.552002 
	C654.675903,836.105835 658.364807,836.043762 662.976807,835.992737 
	C672.942871,836.046997 681.985901,836.090210 690.937805,836.476318 
	C685.805420,838.395752 684.166077,841.922729 684.981140,846.922058 
	C685.139038,847.890564 685.022461,848.903870 684.563293,849.934998 
	C669.740479,849.952515 655.386841,849.931458 641.033264,849.910461 
z"/>
<path fill="#E0D4AF" opacity="1.000000" stroke="none" 
	d="
M640.564697,849.944336 
	C655.386841,849.931458 669.740479,849.952515 685.028137,849.964355 
	C700.669006,849.939636 715.375732,849.924011 730.082520,849.908447 
	C757.439270,849.949768 784.795959,849.991150 813.036255,849.991333 
	C815.582825,849.929260 817.245850,849.908325 818.908936,849.887329 
	C829.313293,849.942749 839.717590,849.998047 851.053101,850.021301 
	C857.432861,850.001221 862.884888,850.131958 868.328552,849.974609 
	C871.007019,849.897156 873.670044,849.286377 876.544617,848.893188 
	C876.749146,848.869507 877.125305,849.037170 877.125305,849.037170 
	C876.275085,849.684692 875.448303,850.852112 874.570740,850.891724 
	C870.249512,851.086670 865.914795,850.983643 861.584839,850.983643 
	C701.043518,850.983887 540.502258,850.983887 379.589905,850.755249 
	C379.333038,850.265137 379.528809,850.101318 379.806213,850.035095 
	C408.550751,850.024719 437.295288,850.014343 466.505310,849.976318 
	C468.709564,849.992065 470.448395,850.035522 473.081055,850.042725 
	C480.947693,849.965698 487.920471,849.924805 494.893219,849.883911 
	C512.603638,849.906250 530.314087,849.928589 548.487671,849.918579 
	C556.313232,849.913208 563.675659,849.940125 571.974731,849.981628 
	C583.263794,849.970154 593.616150,849.944031 603.968567,849.917969 
	C610.021484,849.937317 616.074341,849.956665 622.956177,849.968628 
	C624.501587,849.948853 625.218079,849.936523 625.934631,849.924194 
	C630.655090,849.942200 635.375610,849.960144 640.564697,849.944336 
z"/>
<path fill="#E0D4AF" opacity="1.000000" stroke="none" 
	d="
M606.953735,359.122803 
	C593.264893,359.104675 579.576111,359.086517 564.954956,359.079346 
	C530.664734,359.106750 497.306824,359.123169 463.948914,359.139587 
	C436.263153,359.089630 408.577393,359.039703 380.148254,358.995270 
	C379.226379,358.970551 379.047913,358.940369 378.869446,358.910217 
	C380.212708,358.595978 381.555908,358.006775 382.899231,358.006500 
	C546.837280,357.974030 710.775391,357.984802 874.713440,358.000366 
	C875.375244,358.000427 876.037048,358.101532 876.660156,358.603943 
	C876.449646,359.032257 876.277771,359.012054 876.105896,358.991852 
	C845.064026,359.013641 814.022095,359.035461 782.046753,359.020020 
	C756.098633,359.041168 731.083984,359.099548 705.597412,359.100464 
	C696.097351,359.068939 687.069214,359.094910 677.571350,359.081268 
	C666.083191,359.070923 655.064636,359.100220 643.574097,359.090210 
	C631.052673,359.074890 619.003174,359.098846 606.953735,359.122803 
z"/>
<path fill="#DBB761" opacity="1.000000" stroke="none" 
	d="
M644.046143,359.129486 
	C655.064636,359.100220 666.083191,359.070923 677.554565,359.472717 
	C678.251526,361.160156 678.055725,363.002747 678.815063,363.572510 
	C682.299438,366.187164 681.467896,369.571472 680.732544,373.011230 
	C679.950195,373.330322 679.457214,373.603516 678.964233,373.876709 
	C678.964233,373.876709 678.597473,374.035004 677.922974,373.931519 
	C668.525391,373.682373 659.802368,373.536713 651.054688,373.039124 
	C649.628052,370.093353 648.192688,367.516876 646.835327,364.899994 
	C645.851990,363.004272 644.972107,361.054932 644.046143,359.129486 
z"/>
<path fill="#DBB761" opacity="1.000000" stroke="none" 
	d="
M800.147339,462.120697 
	C793.126038,462.029358 790.844910,456.492371 788.002563,451.170288 
	C792.410522,445.605560 796.873413,440.401886 801.657227,435.448059 
	C803.591309,441.407593 808.659546,443.784546 812.869629,446.989319 
	C809.200256,451.617004 805.530884,456.244720 801.284058,461.062988 
	C800.488586,461.527924 800.270630,461.802216 800.052673,462.076538 
	C800.052673,462.076538 800.139038,462.078278 800.147339,462.120697 
z"/>
<path fill="#D0AB53" opacity="1.000000" stroke="none" 
	d="
M813.007324,446.677551 
	C808.659546,443.784546 803.591309,441.407593 801.972046,435.317230 
	C802.105591,433.991119 801.901428,432.719543 802.439575,432.152557 
	C806.319763,428.064423 810.350159,424.118927 814.644531,419.988220 
	C817.374939,422.921173 819.832336,425.964874 822.189941,429.083984 
	C822.935242,430.070007 823.413757,431.257629 824.034668,432.728333 
	C820.418335,437.524445 816.781677,441.945129 813.007324,446.677551 
z"/>
<path fill="#EFF9F5" opacity="1.000000" stroke="none" 
	d="
M548.957581,689.589294 
	C548.957581,689.589294 548.508789,689.750793 548.295288,689.644531 
	C547.714233,688.008057 547.027344,686.478271 547.025330,684.947510 
	C546.967896,640.599426 546.963928,596.251343 547.030396,551.903259 
	C547.033203,550.024597 547.791565,548.147034 548.564941,546.096375 
	C548.937378,551.312256 548.942871,556.700745 548.956299,563.008728 
	C549.026733,568.293030 549.089233,572.657898 549.067871,577.482666 
	C549.024475,584.289673 549.064819,590.636841 549.013489,597.422363 
	C548.982849,600.244141 549.044006,602.627441 549.025085,605.472778 
	C548.949219,633.819580 548.953430,661.704407 548.957581,689.589294 
z"/>
<path fill="#EFF9F5" opacity="1.000000" stroke="none" 
	d="
M730.066162,544.455627 
	C730.685242,544.034485 731.304321,543.613342 732.193848,543.074951 
	C732.298218,544.582458 731.987244,546.207031 731.986694,547.831787 
	C731.955811,636.586365 731.966919,725.340881 731.855591,814.095337 
	C731.852722,816.402466 730.542664,818.707825 729.426758,821.056580 
	C729.697815,816.616089 730.948730,812.136719 730.977600,807.649414 
	C731.140198,782.413025 731.008545,757.174744 730.993530,731.017700 
	C731.008850,712.987610 731.034790,695.876831 731.000366,678.766113 
	C730.953003,655.182495 730.860046,631.598999 730.888977,607.555237 
	C730.916992,591.404785 730.842651,575.714539 730.868042,559.566528 
	C730.667175,554.224365 730.366699,549.340027 730.066162,544.455627 
z"/>
<path fill="#EFF9F5" opacity="1.000000" stroke="none" 
	d="
M509.569153,704.622070 
	C509.236847,698.188049 509.232330,691.551880 509.232971,684.124451 
	C509.179871,682.890137 509.121613,682.447083 509.136719,681.671936 
	C509.159119,680.892273 509.108154,680.444641 509.145447,679.535339 
	C509.183624,670.040894 509.133545,661.008057 509.164185,651.529480 
	C509.244202,649.758667 509.256104,648.433472 509.240814,647.108582 
	C509.135223,637.952271 506.175049,635.016113 496.976532,634.999878 
	C485.878052,634.980286 474.777802,634.870850 463.681580,635.027893 
	C456.442993,635.130249 449.210114,635.637573 441.981049,635.972595 
	C441.987396,635.981689 441.997314,635.996582 441.997314,635.996582 
	C445.714844,634.990723 449.415436,633.197021 453.152832,633.116699 
	C468.462097,632.787720 483.783081,632.907410 499.098663,633.018127 
	C505.351593,633.063354 510.908295,638.286255 510.961029,644.466675 
	C511.124298,663.610779 511.035034,682.757141 510.973175,701.902344 
	C510.970490,702.742676 510.271576,703.580688 509.569153,704.622070 
z"/>
<path fill="#DBB761" opacity="1.000000" stroke="none" 
	d="
M803.233765,401.115845 
	C804.805908,405.560913 806.378113,410.006012 807.557861,415.003601 
	C803.084839,415.720398 799.004150,415.884705 794.923462,416.049011 
	C794.923462,416.049011 794.990295,416.015656 794.980957,415.748535 
	C794.610779,415.336823 794.249939,415.192230 793.889099,415.047668 
	C790.005859,414.395721 788.891296,411.368805 789.130432,408.246796 
	C789.339417,405.517395 789.450195,402.062988 794.051086,401.111938 
	C796.550110,401.038513 798.295654,401.041931 800.235107,401.283051 
	C800.806885,401.667755 801.184814,401.814758 801.644653,401.700348 
	C802.228882,401.331238 802.731323,401.223541 803.233765,401.115845 
z"/>
<path fill="#EFF9F5" opacity="1.000000" stroke="none" 
	d="
M548.561157,711.249634 
	C548.922363,714.752869 548.926880,718.428162 548.933105,723.015564 
	C548.976746,739.287720 549.018616,754.647705 549.060425,770.007751 
	C548.999390,784.663391 548.892639,799.319153 548.937256,813.974487 
	C548.942566,815.734375 549.769531,817.491821 550.099731,819.675232 
	C548.982178,816.684814 547.135742,813.275757 547.110840,809.853394 
	C546.885437,778.913086 546.957703,747.970459 547.031372,717.028687 
	C547.035828,715.158752 547.795898,713.290649 548.561157,711.249634 
z"/>
<path fill="#EFF9F5" opacity="1.000000" stroke="none" 
	d="
M438.267792,686.018311 
	C438.216278,696.374695 438.164795,706.731079 438.123901,718.014282 
	C438.183655,725.633423 438.232788,732.325806 438.211853,739.480774 
	C438.159393,758.265198 438.176941,776.587036 438.194458,794.908875 
	C438.227936,802.330933 438.261383,809.752930 438.509949,817.497620 
	C438.880157,818.352905 439.035309,818.885620 439.110413,819.824707 
	C438.346527,818.213379 437.069885,816.196960 437.065491,814.177734 
	C436.955170,763.527344 436.978668,712.876648 436.978882,662.226013 
	C436.978912,655.077332 436.939911,647.928040 437.034943,640.780640 
	C437.046295,639.926331 437.791229,639.081726 438.573456,638.089111 
	C438.950775,637.945496 438.973816,637.976379 439.157227,638.373657 
	C438.995422,648.106506 438.650208,657.442200 438.231384,667.191895 
	C438.194458,673.743469 438.231140,679.880859 438.267792,686.018311 
z"/>
<path fill="#EFF9F5" opacity="1.000000" stroke="none" 
	d="
M691.028931,836.133423 
	C681.985901,836.090210 672.942871,836.046997 663.433350,835.942871 
	C664.478699,835.580933 665.990540,835.017395 667.502563,835.016663 
	C730.159546,834.986633 792.816528,835.013733 855.473511,834.988831 
	C857.373413,834.988098 859.273193,834.510559 861.561340,834.078247 
	C860.616699,834.564026 859.289246,835.791382 857.950073,835.804260 
	C840.953003,835.967102 823.954285,835.959351 806.955994,835.987305 
	C789.291016,836.016357 771.625977,836.036865 753.032349,836.037109 
	C731.745422,836.053223 711.387207,836.093323 691.028931,836.133423 
z"/>
<path fill="#EFF9F5" opacity="1.000000" stroke="none" 
	d="
M378.495544,359.141663 
	C379.047913,358.940369 379.226379,358.970551 379.676270,358.999451 
	C379.922852,390.645416 379.897980,422.292725 379.893921,454.399109 
	C379.269440,453.910522 378.061890,452.963806 378.060333,452.015076 
	C378.009186,421.134521 378.074066,390.253815 378.495544,359.141663 
z"/>
<path fill="#EFF9F5" opacity="1.000000" stroke="none" 
	d="
M876.196045,359.453766 
	C876.277771,359.012054 876.449646,359.032257 876.874146,358.993164 
	C877.424805,359.783264 877.983215,360.632599 877.983215,361.481964 
	C877.982849,392.193176 877.930420,422.904388 877.237549,453.785583 
	C876.404480,453.965302 876.219177,453.975037 876.033813,453.984802 
	C876.117920,422.628418 876.202026,391.272064 876.196045,359.453766 
z"/>
<path fill="#E0D4AF" opacity="1.000000" stroke="none" 
	d="
M658.345825,631.085449 
	C658.310242,630.534058 658.682312,630.177246 659.392212,630.265259 
	C659.834412,651.147461 659.938904,671.584839 659.968567,692.484558 
	C659.941711,707.300110 659.989685,721.653381 659.960205,736.469360 
	C659.940186,751.293518 659.997620,765.655090 660.055054,780.016602 
	C660.083008,792.427551 660.110962,804.838501 660.023621,817.719299 
	C659.631042,817.012085 659.111938,815.835144 659.111145,814.657898 
	C659.069580,754.682312 659.073975,694.706665 659.056885,634.731079 
	C659.056519,633.580750 658.859009,632.430359 658.345825,631.085449 
z"/>
<path fill="#EFF9F5" opacity="1.000000" stroke="none" 
	d="
M379.739655,849.567688 
	C379.528809,850.101318 379.333038,850.265137 379.126221,850.700684 
	C378.682159,850.109924 378.023773,849.345093 378.023621,848.580200 
	C378.018402,817.846313 378.072662,787.112427 378.689423,756.235718 
	C379.259583,756.092834 379.672943,756.153625 379.787598,756.179077 
	C379.902222,756.204468 380.003632,755.992676 379.925171,756.454346 
	C379.915710,761.623535 379.984772,766.331116 379.979065,771.403687 
	C379.935974,772.511108 379.967590,773.253601 379.892395,774.454102 
	C379.829285,780.597656 379.873016,786.283142 379.916718,791.968567 
	C379.835510,811.012451 379.754303,830.056396 379.739655,849.567688 
z"/>
<path fill="#EFF9F5" opacity="1.000000" stroke="none" 
	d="
M877.505859,848.823975 
	C877.125305,849.037170 876.749146,848.869507 876.498047,848.432373 
	C876.154663,821.677795 876.062500,795.360291 875.970337,769.042847 
	C876.149475,764.655823 876.328674,760.268860 876.586487,755.475464 
	C877.116821,755.909180 877.962769,756.748901 877.963379,757.589294 
	C877.986633,787.929749 877.931152,818.270203 877.505859,848.823975 
z"/>
<path fill="#EFF9F5" opacity="1.000000" stroke="none" 
	d="
M619.871765,675.932373 
	C620.407532,675.323853 620.943359,674.715271 621.783325,674.095459 
	C621.726135,676.475342 621.052856,678.866150 621.049744,681.257812 
	C620.991577,725.399292 621.026672,769.540833 620.968323,813.682312 
	C620.966125,815.366028 620.226379,817.048767 619.445801,818.869995 
	C619.340088,799.987549 619.618896,780.967102 619.907654,761.020874 
	C619.850403,749.399353 619.783081,738.703613 619.715820,728.007874 
	C619.773132,711.648071 619.830383,695.288269 619.924316,678.126160 
	C619.931274,676.860046 619.901550,676.396179 619.871765,675.932373 
z"/>
<path fill="#E0D4AF" opacity="1.000000" stroke="none" 
	d="
M660.114014,603.147278 
	C659.648315,603.475220 659.182678,603.803223 658.422485,604.166626 
	C658.434753,600.804443 659.002136,597.407288 659.008179,594.009155 
	C659.070984,558.763123 659.032898,523.516846 659.051208,488.270691 
	C659.054138,482.626404 659.196716,476.982208 659.620361,471.132538 
	C659.933899,486.647003 659.901733,502.366913 659.874634,519.014038 
	C659.933105,525.639526 659.986572,531.337708 659.969116,537.496094 
	C659.939819,543.961304 659.981506,549.966309 659.941772,556.422302 
	C659.911621,559.924622 659.962769,562.976013 659.945923,566.489136 
	C659.956604,579.016418 660.035339,591.081848 660.114014,603.147278 
z"/>
<path fill="#DBB761" opacity="1.000000" stroke="none" 
	d="
M784.142456,372.818787 
	C807.719666,372.879639 831.296875,372.926605 854.874023,373.008240 
	C864.049805,373.040009 862.847351,371.889343 862.875610,381.365723 
	C862.877563,382.019958 862.711548,382.674683 862.391968,383.663910 
	C861.732056,373.125336 864.113525,373.988312 851.876526,373.985870 
	C813.894226,373.978271 775.911987,374.001160 737.447144,373.734131 
	C736.964600,373.455994 736.914429,373.074951 737.389038,373.026917 
	C753.289917,372.925507 768.716187,372.872162 784.142456,372.818787 
z"/>
<path fill="#E3C26F" opacity="1.000000" stroke="none" 
	d="
M396.437622,373.917053 
	C397.880554,373.569366 399.794586,373.015533 401.710846,373.007782 
	C420.476746,372.931610 439.242950,372.946472 458.948059,372.955536 
	C476.950958,373.009003 494.014923,373.042389 511.056091,373.265320 
	C511.033295,373.454834 510.993073,373.834473 510.993073,373.834473 
	C485.587463,373.891235 460.181885,373.961304 434.776245,373.999176 
	C422.154114,374.018005 409.531952,373.977783 396.437622,373.917053 
z"/>
<path fill="#EFF9F5" opacity="1.000000" stroke="none" 
	d="
M651.079346,373.391052 
	C659.802368,373.536713 668.525391,373.682373 677.723633,373.918945 
	C677.023621,374.346954 675.848755,374.976868 674.673035,374.978607 
	C640.359558,375.029083 606.046021,375.017883 571.732483,375.005463 
	C571.241516,375.005310 570.750549,374.864441 570.033081,374.401093 
	C581.545959,373.881561 593.285339,373.750183 605.930908,373.647217 
	C621.584534,373.580750 636.331970,373.485901 651.079346,373.391052 
z"/>
<path fill="#DBB761" opacity="1.000000" stroke="none" 
	d="
M393.906067,832.495117 
	C393.619446,829.064636 393.207092,825.170044 393.135071,821.269104 
	C392.985535,813.170654 393.016510,805.068848 393.000885,796.030701 
	C393.012268,783.797241 392.880463,772.499817 393.044495,761.206665 
	C393.099518,757.416565 392.025726,755.587585 387.972534,755.957458 
	C385.337128,756.198059 382.661346,755.996277 380.003632,755.992676 
	C380.003632,755.992676 379.902222,756.204468 379.921173,755.940857 
	C379.988892,755.502502 380.037659,755.327820 380.086426,755.153076 
	C383.732239,755.100891 387.386169,755.180176 391.021423,754.956482 
	C394.148590,754.764099 395.161865,756.166077 395.029144,759.076782 
	C394.900818,761.891357 395.044525,764.717163 394.999237,767.536865 
	C394.653900,789.034119 394.291534,810.531128 393.906067,832.495117 
z"/>
<path fill="#EFF9F5" opacity="1.000000" stroke="none" 
	d="
M621.608765,647.539551 
	C621.613525,648.486145 621.187195,649.481323 620.415039,650.206177 
	C619.967285,629.631470 619.865356,609.327148 619.843506,588.558960 
	C619.852112,575.401062 619.780701,562.706970 619.709290,550.012878 
	C619.683350,549.211121 619.657410,548.409363 619.846313,547.265259 
	C620.375732,548.586975 620.959167,550.250061 620.964966,551.915161 
	C621.076477,583.806030 621.120117,615.697144 621.608765,647.539551 
z"/>
<path fill="#EFF9F5" opacity="1.000000" stroke="none" 
	d="
M800.041260,401.045319 
	C798.295654,401.041931 796.550110,401.038513 794.372070,400.970032 
	C795.672852,400.262909 797.398987,399.087799 799.140442,399.064575 
	C811.298523,398.902527 823.460205,398.929993 835.619568,399.034424 
	C837.336792,399.049164 839.047607,399.811584 840.922729,400.605042 
	C828.786865,400.995483 816.489563,401.008850 803.713013,401.069031 
	C802.731323,401.223541 802.228882,401.331238 801.547363,401.369873 
	C800.925903,401.215607 800.483582,401.130463 800.041260,401.045319 
z"/>
<path fill="#E0D4AF" opacity="1.000000" stroke="none" 
	d="
M508.921631,736.569214 
	C509.084076,736.292480 509.314484,736.095093 509.840942,736.013489 
	C510.365784,743.686157 510.963013,751.324951 510.898438,758.958191 
	C510.753265,776.105408 510.279602,793.249817 509.672699,810.706421 
	C509.294403,804.662842 509.183075,798.308228 509.091156,791.025513 
	C509.047577,772.254700 508.984619,754.411926 508.921631,736.569214 
z"/>
<path fill="#E3C26F" opacity="1.000000" stroke="none" 
	d="
M393.430878,454.737000 
	C393.034637,429.342285 392.998352,403.857056 393.069794,378.372162 
	C393.073914,376.900299 393.953705,375.430908 394.860718,373.991638 
	C394.859619,376.552460 394.060181,379.080017 394.045959,381.611969 
	C393.939728,400.534332 393.947754,419.457733 394.032379,438.380341 
	C394.045410,441.293152 394.889282,444.204193 394.879730,447.114563 
	C394.871460,449.626373 394.195282,452.136017 393.430878,454.737000 
z"/>
<path fill="#EFF9F5" opacity="1.000000" stroke="none" 
	d="
M617.948669,543.601013 
	C612.638489,543.259766 607.197510,542.071533 601.732971,541.951355 
	C588.165527,541.652771 574.586548,541.769104 561.013855,541.895020 
	C558.259216,541.920532 555.511780,542.720398 552.334839,543.065308 
	C553.244873,542.323730 554.577515,541.127686 555.917542,541.119446 
	C574.656311,541.004456 593.396667,540.989319 612.134766,541.154602 
	C614.031555,541.171265 615.916626,542.513245 617.948669,543.601013 
z"/>
<path fill="#E0D4AF" opacity="1.000000" stroke="none" 
	d="
M843.796631,447.813263 
	C843.871887,434.710693 844.000305,421.608002 843.964172,408.505737 
	C843.958862,406.582336 843.171570,404.661133 842.915039,402.334717 
	C844.062256,405.837189 845.743713,409.722168 845.865173,413.655304 
	C846.083191,420.717712 845.284546,427.806580 845.062012,434.889130 
	C844.885742,440.501312 844.935791,446.120544 844.320190,451.779358 
	C843.609619,451.712585 843.464111,451.603088 843.460449,451.150208 
	C843.667114,449.808990 843.731873,448.811127 843.796631,447.813263 
z"/>
<path fill="#EFF9F5" opacity="1.000000" stroke="none" 
	d="
M726.930176,466.587372 
	C707.642822,466.697784 688.197632,466.360016 668.751221,466.247803 
	C666.730164,466.236115 664.701355,467.563202 662.295166,468.110535 
	C663.974121,466.962860 666.023682,465.140808 668.095459,465.115143 
	C686.313782,464.889221 704.536133,464.957550 722.756897,465.035156 
	C724.096924,465.040863 725.433777,465.796661 726.930176,466.587372 
z"/>
<path fill="#EFF9F5" opacity="1.000000" stroke="none" 
	d="
M861.577881,385.080780 
	C862.061584,404.926270 862.152771,424.982391 862.248108,445.038544 
	C862.259155,447.359406 862.293701,449.680145 862.225952,452.683044 
	C862.134583,453.365112 862.173828,453.860504 862.140015,454.114288 
	C862.078125,454.536438 862.050049,454.704773 862.021912,454.873138 
	C861.675232,454.271027 861.025269,453.668732 861.025696,453.066864 
	C861.041992,430.475037 861.118286,407.883240 861.577881,385.080780 
z"/>
<path fill="#EFF9F5" opacity="1.000000" stroke="none" 
	d="
M512.834595,835.494263 
	C492.657043,835.932129 472.263397,835.993469 451.404358,836.147339 
	C449.543884,836.189819 448.148712,836.139709 446.345337,835.990112 
	C446.779694,835.586914 447.622284,835.018127 448.464935,835.018005 
	C469.849426,835.014954 491.233917,835.071533 512.834595,835.494263 
z"/>
<path fill="#EFF9F5" opacity="1.000000" stroke="none" 
	d="
M571.968018,836.182251 
	C570.269409,836.151978 568.570740,836.121765 566.020142,836.076843 
	C563.433777,836.002930 561.699280,835.943726 559.964844,835.884521 
	C560.638733,835.583374 561.312622,835.019226 561.986511,835.019165 
	C583.195801,835.017456 604.405029,835.070679 625.825684,835.492798 
	C615.994080,835.934509 605.951111,835.998901 594.977661,836.071411 
	C586.687439,836.113708 579.327759,836.147949 571.968018,836.182251 
z"/>
<path fill="#E0D4AF" opacity="1.000000" stroke="none" 
	d="
M441.050354,822.423462 
	C451.618347,822.360901 462.303345,822.851135 472.993042,822.996277 
	C483.081604,823.133240 493.175110,822.907227 503.733093,822.970703 
	C503.186676,823.400879 502.174622,823.959106 501.160370,823.963135 
	C482.506378,824.036499 463.852020,824.069214 445.198059,824.011108 
	C443.853973,824.006897 442.512238,823.238647 441.050354,822.423462 
z"/>
<path fill="#E0D4AF" opacity="1.000000" stroke="none" 
	d="
M665.073853,823.488770 
	C682.817017,823.085693 700.765198,823.086731 718.713318,823.049377 
	C720.870239,823.044922 723.026733,822.832336 725.632812,822.884216 
	C725.437439,823.391174 724.792603,824.026184 724.148010,824.025879 
	C704.524963,824.016174 684.901978,823.943909 665.073853,823.488770 
z"/>
<path fill="#E0D4AF" opacity="1.000000" stroke="none" 
	d="
M554.093506,823.457153 
	C573.700500,823.002441 593.483032,822.958618 613.744019,822.984131 
	C613.549194,823.376221 612.876099,823.980896 612.203003,823.980896 
	C592.891724,823.980469 573.580444,823.919312 554.093506,823.457153 
z"/>
<path fill="#E0D4AF" opacity="1.000000" stroke="none" 
	d="
M828.423584,429.313782 
	C828.287354,428.585266 828.552002,427.963470 828.816711,427.341644 
	C829.235901,427.381927 829.655090,427.422211 830.074280,427.462494 
	C830.074280,430.326965 830.074280,433.191467 830.060791,436.964722 
	C830.047241,440.015839 830.037598,442.158203 830.049011,444.300476 
	C830.093384,452.673340 833.028931,455.001740 841.704712,453.622925 
	C841.853394,453.809052 842.163208,454.171021 842.163208,454.171021 
	C831.875366,456.197845 828.307495,455.847870 828.032715,444.453522 
	C827.912109,439.451782 828.537720,434.432068 828.423584,429.313782 
z"/>
<path fill="#E0D4AF" opacity="1.000000" stroke="none" 
	d="
M736.914429,373.074951 
	C736.914429,373.074951 736.964600,373.455994 736.986206,373.646973 
	C717.974792,373.884613 698.941772,373.931274 679.436523,373.927307 
	C679.457214,373.603516 679.950195,373.330322 681.198303,373.036285 
	C690.983459,372.989105 700.013428,372.962769 709.508423,372.968994 
	C718.953735,373.026031 727.934082,373.050507 736.914429,373.074951 
z"/>
<path fill="#E0D4AF" opacity="1.000000" stroke="none" 
	d="
M511.459717,373.895935 
	C510.993073,373.834473 511.033295,373.454834 511.516785,373.263947 
	C529.659119,373.035309 547.317993,372.997559 564.976868,372.959839 
	C566.150024,373.104340 567.323120,373.248871 568.756592,373.634308 
	C549.986755,373.902649 530.956543,373.930023 511.459717,373.895935 
z"/>
<path fill="#EFF9F5" opacity="1.000000" stroke="none" 
	d="
M732.718689,515.969604 
	C732.663391,516.955994 732.177734,517.775879 731.392395,518.315430 
	C730.985229,513.362244 730.877686,508.689453 730.770142,504.016632 
	C730.635132,493.418488 730.500183,482.820312 730.687744,472.007080 
	C731.324097,473.285797 731.891357,474.776062 731.911987,476.273865 
	C732.092651,489.449524 732.176086,502.626556 732.718689,515.969604 
z"/>
<path fill="#EFF9F5" opacity="1.000000" stroke="none" 
	d="
M393.760773,834.883728 
	C393.810028,834.713440 393.859253,834.543152 394.007263,834.126038 
	C395.809448,834.259277 397.509552,834.951782 399.216705,834.969604 
	C411.688995,835.099792 424.162750,835.094299 436.842682,835.515503 
	C423.049591,835.935791 409.049805,835.972290 394.526886,835.689514 
	C393.922760,835.208008 393.841766,835.045898 393.760773,834.883728 
z"/>
<path fill="#EFF9F5" opacity="1.000000" stroke="none" 
	d="
M861.650513,755.206909 
	C862.114197,767.815796 862.136536,780.511230 862.071777,793.678467 
	C861.650879,793.483337 861.025452,792.816040 861.026306,792.149597 
	C861.042603,779.864197 861.133728,767.578796 861.650513,755.206909 
z"/>
<path fill="#EFF9F5" opacity="1.000000" stroke="none" 
	d="
M795.123596,416.443115 
	C799.004150,415.884705 803.084839,415.720398 807.538940,415.416016 
	C809.357727,415.401123 810.803101,415.526337 812.873596,415.691742 
	C813.680725,415.690399 813.862610,415.648834 814.044556,415.607239 
	C814.938110,415.755981 815.831726,415.904694 817.101257,416.115997 
	C816.566772,417.049835 816.151611,417.775116 815.441711,418.654114 
	C813.920593,418.212280 812.715332,417.158295 811.464172,417.100677 
	C806.091431,416.853088 800.705078,416.898529 795.123596,416.443115 
z"/>
<path fill="#DBB761" opacity="1.000000" stroke="none" 
	d="
M559.641235,835.940735 
	C561.699280,835.943726 563.433777,836.002930 565.598267,836.128906 
	C563.685608,839.407837 560.966064,838.347290 558.114746,836.522095 
	C558.451416,836.105225 558.884521,836.051086 559.641235,835.940735 
z"/>
<path fill="#E0D4AF" opacity="1.000000" stroke="none" 
	d="
M862.479370,454.944092 
	C862.050049,454.704773 862.078125,454.536438 862.361328,454.134186 
	C862.616394,453.900299 863.057983,453.844696 863.057983,453.844696 
	C867.072693,453.891907 871.087341,453.939148 875.567932,453.985596 
	C876.219177,453.975037 876.404480,453.965302 876.862427,454.011719 
	C872.402344,454.383606 867.669617,454.699341 862.479370,454.944092 
z"/>
<path fill="#EFF9F5" opacity="1.000000" stroke="none" 
	d="
M750.616699,494.034149 
	C749.836731,495.652405 748.736755,497.377716 747.276001,499.027283 
	C748.042358,497.348083 749.169556,495.744629 750.616699,494.034149 
z"/>
<path fill="#EFF9F5" opacity="1.000000" stroke="none" 
	d="
M661.561035,467.950867 
	C661.505005,468.914642 661.069397,469.909302 660.274963,470.954956 
	C660.337891,469.997955 660.759644,468.989868 661.561035,467.950867 
z"/>
<path fill="#EFF9F5" opacity="1.000000" stroke="none" 
	d="
M744.617920,501.032654 
	C744.507446,501.945496 744.081543,502.962494 743.282715,503.973389 
	C743.374084,503.023834 743.838318,502.080322 744.617920,501.032654 
z"/>
<path fill="#EFF9F5" opacity="1.000000" stroke="none" 
	d="
M754.599976,489.928955 
	C754.506714,490.606781 754.058228,491.330627 753.261230,492.005798 
	C753.356812,491.296417 753.800781,490.635712 754.599976,489.928955 
z"/>
<path fill="#EFF9F5" opacity="1.000000" stroke="none" 
	d="
M728.926025,468.644501 
	C728.217407,468.514282 727.560059,468.022186 726.964783,467.219543 
	C727.677002,467.366913 728.327209,467.824768 728.926025,468.644501 
z"/>
<path fill="#EFF9F5" opacity="1.000000" stroke="none" 
	d="
M739.628479,507.030090 
	C739.804932,507.554688 739.673828,508.182281 739.196533,508.899231 
	C739.007202,508.370056 739.164062,507.751587 739.628479,507.030090 
z"/>
<path fill="#E0D4AF" opacity="1.000000" stroke="none" 
	d="
M842.984253,401.584503 
	C842.430847,401.812469 841.797729,401.722748 841.094116,401.272034 
	C841.650513,401.029602 842.277527,401.148193 842.984253,401.584503 
z"/>
<path fill="#E0D4AF" opacity="1.000000" stroke="none" 
	d="
M510.393188,735.981384 
	C510.277679,735.447815 510.498993,734.833496 511.071991,734.098267 
	C511.192474,734.618408 510.961273,735.259521 510.393188,735.981384 
z"/>
<path fill="#EFF9F5" opacity="1.000000" stroke="none" 
	d="
M439.919250,636.923706 
	C440.396667,636.619812 440.874054,636.315918 441.674377,636.004272 
	C441.997314,635.996582 441.987396,635.981689 441.888123,636.319580 
	C441.185272,636.761780 440.581665,636.866150 439.960815,636.963135 
	C439.943573,636.955811 439.919250,636.923706 439.919250,636.923706 
z"/>
<path fill="#EFF9F5" opacity="1.000000" stroke="none" 
	d="
M438.935974,637.931885 
	C439.086304,637.628601 439.251495,637.338989 439.667969,636.986511 
	C439.919250,636.923706 439.943573,636.955811 440.078705,637.320801 
	C439.800507,637.782593 439.387146,637.879456 438.973816,637.976379 
	C438.973816,637.976379 438.950775,637.945496 438.935974,637.931885 
z"/>
<path fill="#EFF9F5" opacity="1.000000" stroke="none" 
	d="
M741.698914,504.978088 
	C741.824219,505.271942 741.682434,505.629852 741.226868,505.976013 
	C741.085999,505.656860 741.258911,505.349518 741.698914,504.978088 
z"/>
<path fill="#EFF9F5" opacity="1.000000" stroke="none" 
	d="
M742.700806,503.978027 
	C742.824158,504.269165 742.679626,504.624146 742.224426,504.972839 
	C742.086792,504.658325 742.259827,504.350098 742.700806,503.978027 
z"/>
<path fill="#D0AB53" opacity="1.000000" stroke="none" 
	d="
M524.899536,718.385010 
	C524.663452,718.173828 524.537964,717.936340 524.412476,717.698853 
	C524.554138,717.725525 524.695801,717.752197 524.959839,717.960938 
	C525.082153,718.143066 525.010132,718.358765 524.899536,718.385010 
z"/>
<path fill="#EFF9F5" opacity="1.000000" stroke="none" 
	d="
M745.695435,499.978149 
	C745.826660,500.284058 745.692749,500.654297 745.236267,500.991058 
	C745.085938,500.652557 745.258118,500.347565 745.695435,499.978149 
z"/>
<path fill="#EFF9F5" opacity="1.000000" stroke="none" 
	d="
M746.697388,498.977905 
	C746.824646,499.274689 746.685364,499.635925 746.229553,499.979797 
	C746.085693,499.655731 746.258301,499.349030 746.697388,498.977905 
z"/>
<path fill="#EFF9F5" opacity="1.000000" stroke="none" 
	d="
M740.697144,505.977722 
	C740.825684,506.279236 740.688293,506.644989 740.232056,506.985229 
	C740.085815,506.653778 740.258484,506.347900 740.697144,505.977722 
z"/>
<path fill="#EFF9F5" opacity="1.000000" stroke="none" 
	d="
M751.694885,492.978210 
	C751.825562,493.280090 751.690857,493.646606 751.234863,493.986450 
	C751.085510,493.654144 751.257507,493.348480 751.694885,492.978210 
z"/>
<path fill="#EFF9F5" opacity="1.000000" stroke="none" 
	d="
M752.699097,491.977936 
	C752.825195,492.274994 752.684143,492.636047 752.228027,492.979645 
	C752.085938,492.655426 752.258972,492.348663 752.699097,491.977936 
z"/>
<path fill="#E0D4AF" opacity="1.000000" stroke="none" 
	d="
M547.754883,689.732849 
	C547.884155,690.016357 547.744751,690.484253 547.210693,690.966431 
	C547.039429,690.626221 547.262817,690.271729 547.754883,689.732849 
z"/>
<path fill="#EFF9F5" opacity="1.000000" stroke="none" 
	d="
M793.966370,415.311371 
	C794.249939,415.192230 794.610779,415.336823 794.971802,415.784729 
	C794.662598,415.917053 794.353088,415.746094 793.966370,415.311371 
z"/>
<path fill="#EFF9F5" opacity="1.000000" stroke="none" 
	d="
M755.693848,488.946655 
	C755.800110,489.194519 755.647522,489.542480 755.203674,489.936493 
	C755.086670,489.670624 755.260925,489.358673 755.693848,488.946655 
z"/>
<path fill="#EFF9F5" opacity="1.000000" stroke="none" 
	d="
M738.845337,508.988220 
	C738.767517,509.017334 738.592468,509.194946 738.362366,509.575989 
	C738.187622,509.350586 738.334595,509.136353 738.845337,508.988220 
z"/>
<path fill="#E0D4AF" opacity="1.000000" stroke="none" 
	d="
M379.804626,755.094116 
	C380.037659,755.327820 379.988892,755.502502 379.806519,755.915405 
	C379.672943,756.153625 379.259583,756.092834 379.066742,756.012451 
	C379.090210,755.633118 379.306488,755.334167 379.804626,755.094116 
z"/>
<path fill="#EFF9F5" opacity="1.000000" stroke="none" 
	d="
M620.007080,546.678406 
	C619.750305,546.753357 619.402222,546.522827 619.001465,545.915100 
	C619.271118,545.816223 619.593506,546.094604 620.007080,546.678406 
z"/>
<path fill="#EFF9F5" opacity="1.000000" stroke="none" 
	d="
M549.703796,544.971924 
	C549.854126,545.361206 549.739502,545.815247 549.268555,546.107483 
	C549.087769,545.642700 549.263367,545.339722 549.703796,544.971924 
z"/>
<path fill="#EFF9F5" opacity="1.000000" stroke="none" 
	d="
M618.962769,545.050293 
	C618.564941,545.124512 618.183655,544.864685 617.922485,544.258301 
	C618.354919,544.179871 618.667114,544.448120 618.962769,545.050293 
z"/>
<path fill="#EFF9F5" opacity="1.000000" stroke="none" 
	d="
M550.709839,543.975159 
	C550.847900,544.304077 550.717468,544.701904 550.246765,545.035095 
	C550.084778,544.661621 550.263062,544.352844 550.709839,543.975159 
z"/>
<path fill="#EFF9F5" opacity="1.000000" stroke="none" 
	d="
M551.701599,542.974121 
	C551.846008,543.294312 551.720459,543.682190 551.250854,544.023560 
	C551.081726,543.665283 551.256714,543.353577 551.701599,542.974121 
z"/>
<path fill="#E0D4AF" opacity="1.000000" stroke="none" 
	d="
M843.169373,453.164795 
	C842.992859,453.443146 842.816345,453.721497 842.401489,454.085419 
	C842.163208,454.171021 841.853394,453.809052 841.869995,453.477966 
	C842.094727,452.938385 842.312744,452.740662 842.697632,452.706543 
	C842.854858,452.859314 843.169373,453.164795 843.169373,453.164795 
z"/>
<path fill="#E3C26F" opacity="1.000000" stroke="none" 
	d="
M800.326294,462.049255 
	C800.270630,461.802216 800.488586,461.527924 800.971497,461.208130 
	C801.024231,461.449097 800.812012,461.735535 800.326294,462.049255 
z"/>
<path fill="#EFF9F5" opacity="1.000000" stroke="none" 
	d="
M549.974487,820.284912 
	C550.297302,820.135376 550.695190,820.258362 551.045532,820.740723 
	C550.681885,820.919189 550.365784,820.738342 549.974487,820.284912 
z"/>
<path fill="#E0D4AF" opacity="1.000000" stroke="none" 
	d="
M440.335907,821.398193 
	C440.131317,821.609802 440.258789,821.872131 440.845886,822.007935 
	C440.840302,821.890015 440.627808,821.745850 440.335907,821.398193 
z"/>
<path fill="#EFF9F5" opacity="1.000000" stroke="none" 
	d="
M550.992798,821.315552 
	C551.312561,821.095825 551.722717,821.177856 552.185547,821.605347 
	C551.853271,821.839661 551.468201,821.728455 550.992798,821.315552 
z"/>
<path fill="#EFF9F5" opacity="1.000000" stroke="none" 
	d="
M728.097412,821.965881 
	C727.995911,821.565063 728.206665,821.175110 728.757324,820.903320 
	C728.867981,821.339905 728.638855,821.658325 728.097412,821.965881 
z"/>
<path fill="#E0D4AF" opacity="1.000000" stroke="none" 
	d="
M843.966858,451.994476 
	C844.000549,452.443176 843.822449,452.719482 843.406860,453.080292 
	C843.169373,453.164795 842.854858,452.859314 842.832275,452.534424 
	C842.988586,451.977448 843.158203,451.738800 843.318604,451.493591 
	C843.464111,451.603088 843.609619,451.712585 843.966858,451.994476 
z"/>
<path fill="#E0D4AF" opacity="1.000000" stroke="none" 
	d="
M552.834900,822.301758 
	C553.117920,822.168640 553.552979,822.286194 553.983398,822.747925 
	C553.648254,822.912231 553.317566,822.732300 552.834900,822.301758 
z"/>
<path fill="#E0D4AF" opacity="1.000000" stroke="none" 
	d="
M726.336304,823.037964 
	C726.231567,822.723694 726.431702,822.354736 727.013855,821.997009 
	C727.144348,822.333252 726.892761,822.658325 726.336304,823.037964 
z"/>
<path fill="#178862" opacity="1.000000" stroke="none" 
	d="
M619.369995,728.019409 
	C619.783081,738.703613 619.850403,749.399353 619.833374,760.559082 
	C615.120544,764.732239 610.621216,763.468079 605.097046,762.446716 
	C597.162354,760.979675 588.803406,762.560913 580.934204,766.052551 
	C578.394775,767.179321 574.369141,765.422729 571.176392,764.471497 
	C568.347778,763.628723 566.355408,763.757446 563.538208,765.348999 
	C559.418884,767.676147 554.463806,768.523987 549.462708,770.005005 
	C549.018616,754.647705 548.976746,739.287720 549.026001,723.467163 
	C549.744690,724.337463 550.823303,725.638489 550.913574,727.004700 
	C551.163086,730.781006 550.999878,734.584534 550.999878,739.612061 
	C556.307495,737.291626 560.707886,735.370850 565.105835,733.444519 
	C571.253784,730.751526 577.212708,727.372986 583.616638,725.613159 
	C587.501404,724.545654 592.203186,725.436157 596.306213,726.416565 
	C602.458313,727.886597 608.406921,730.208313 615.019958,732.355530 
	C616.027832,731.267029 617.526001,729.648987 619.369995,728.019409 
z"/>
<path fill="#1B8F64" opacity="1.000000" stroke="none" 
	d="
M660.037659,736.006653 
	C659.989685,721.653381 659.941711,707.300110 660.320068,692.553833 
	C662.006653,693.400818 663.266907,694.640869 664.527161,695.880920 
	C665.687012,694.234985 666.623840,692.351990 668.060669,691.000610 
	C670.051941,689.127808 672.525940,686.166992 674.603394,686.316223 
	C679.098206,686.638977 683.788696,688.034790 687.808472,690.126770 
	C691.992615,692.304138 695.165161,691.546631 698.956177,689.602478 
	C708.674133,684.618652 718.554077,679.950623 728.983948,674.856140 
	C728.983948,659.860168 728.983948,644.424866 728.986938,628.521606 
	C728.996521,621.369995 729.003174,614.686218 729.305847,608.004150 
	C729.996826,608.009094 730.391663,608.012268 730.786560,608.015381 
	C730.860046,631.598999 730.953003,655.182495 731.000366,678.766113 
	C731.034790,695.876831 731.008850,712.987610 730.903870,730.557861 
	C730.397339,731.012146 729.996704,731.006897 728.895081,730.991638 
	C725.233582,731.225098 722.273193,731.468872 719.312744,731.711792 
	C718.660522,731.765320 717.650146,732.112366 717.409851,731.822571 
	C714.296570,728.066895 710.181030,730.084412 706.539124,729.997864 
	C702.200378,729.894714 697.845398,730.414185 693.499451,730.693726 
	C691.281372,730.836365 688.210815,732.055664 687.008972,731.037415 
	C683.071533,727.701782 680.033508,729.534729 676.711426,731.577026 
	C672.347656,734.259705 667.967957,736.916504 663.623901,739.566895 
	C662.448669,738.400208 661.243164,737.203430 660.037659,736.006653 
z"/>
<path fill="#178862" opacity="1.000000" stroke="none" 
	d="
M659.960205,736.469360 
	C661.243164,737.203430 662.448669,738.400208 663.623901,739.566895 
	C667.967957,736.916504 672.347656,734.259705 676.711426,731.577026 
	C680.033508,729.534729 683.071533,727.701782 687.008972,731.037415 
	C688.210815,732.055664 691.281372,730.836365 693.499451,730.693726 
	C697.845398,730.414185 702.200378,729.894714 706.539124,729.997864 
	C710.181030,730.084412 714.296570,728.066895 717.409851,731.822571 
	C717.650146,732.112366 718.660522,731.765320 719.312744,731.711792 
	C722.273193,731.468872 725.233582,731.225098 728.594604,730.992065 
	C728.995117,742.426819 728.995117,753.851196 728.995117,764.022522 
	C723.408203,765.069519 718.637207,766.072144 713.825317,766.807312 
	C712.114868,767.068726 710.305115,766.680359 708.568176,766.590027 
	C708.000183,769.393616 707.466309,772.029175 707.055847,774.055115 
	C698.197632,772.624451 690.081482,771.380432 681.990784,769.988159 
	C673.993225,768.611938 669.944275,774.422302 666.645020,779.603088 
	C664.037048,783.698303 663.022156,783.140320 660.396912,780.076721 
	C659.997620,765.655090 659.940186,751.293518 659.960205,736.469360 
z"/>
<path fill="#2FB278" opacity="1.000000" stroke="none" 
	d="
M730.398438,504.133301 
	C730.877686,508.689453 730.985229,513.362244 731.158752,518.494019 
	C720.113342,532.029907 709.001953,545.106934 697.385803,557.936096 
	C694.851318,555.311523 692.511841,553.128784 690.870117,550.508911 
	C688.818237,547.234314 687.371277,547.399048 685.728699,550.613464 
	C685.220276,551.608582 684.772095,552.634583 684.213135,553.823364 
	C680.993835,552.689331 677.777100,551.927490 674.926697,550.455994 
	C671.531311,548.703064 670.580811,549.274597 669.851929,553.122314 
	C668.879456,558.256470 666.820923,563.184814 665.088684,568.643188 
	C662.524414,567.321411 661.269226,566.674377 660.013916,566.027344 
	C659.962769,562.976013 659.911621,559.924622 660.333008,556.331177 
	C661.002380,549.722229 661.210632,543.655701 661.338501,537.587463 
	C661.342163,537.412781 660.492065,537.220154 660.040039,537.035950 
	C659.986572,531.337708 659.933105,525.639526 659.947205,519.479248 
	C661.127014,520.466003 662.239258,521.914856 663.387390,523.410522 
	C665.896606,523.276062 668.822388,523.819153 671.053833,522.816650 
	C673.650208,521.650269 675.577515,519.052612 677.909912,517.222290 
	C679.842102,515.705933 681.759216,513.752686 683.999878,513.125916 
	C690.614075,511.275665 697.386597,509.992462 704.094849,508.477417 
	C708.477966,507.487488 712.857117,506.480103 717.238037,505.480499 
	C717.649475,506.148804 718.060913,506.817139 718.472351,507.485443 
	C716.056641,510.450165 713.640930,513.414856 710.795715,516.906677 
	C716.171448,520.631653 722.404236,512.774658 728.215576,517.635742 
	C728.912231,512.487122 729.469543,508.368530 730.398438,504.133301 
z"/>
<path fill="#D0AB53" opacity="1.000000" stroke="none" 
	d="
M690.937805,836.476318 
	C711.387207,836.093323 731.745422,836.053223 752.569092,836.094116 
	C750.999756,837.978638 748.283325,839.409973 747.057861,841.655151 
	C743.368408,848.414062 737.626221,849.979980 730.376404,849.632568 
	C715.375732,849.924011 700.669006,849.939636 685.497375,849.925842 
	C685.022461,848.903870 685.139038,847.890564 684.981140,846.922058 
	C684.166077,841.922729 685.805420,838.395752 690.937805,836.476318 
z"/>
<path fill="#A57C19" opacity="1.000000" stroke="none" 
	d="
M875.695679,769.348145 
	C876.062500,795.360291 876.154663,821.677795 876.293457,848.456055 
	C873.670044,849.286377 871.007019,849.897156 868.328552,849.974609 
	C862.884888,850.131958 857.432861,850.001221 851.521606,849.955078 
	C857.104553,849.599731 863.159668,848.918152 869.192871,849.075867 
	C873.695862,849.193604 875.109070,847.954651 875.063354,843.288147 
	C874.842346,820.718506 874.991699,798.145142 875.042603,775.573120 
	C875.047058,773.599609 875.289246,771.626587 875.695679,769.348145 
z"/>
<path fill="#A57C19" opacity="1.000000" stroke="none" 
	d="
M818.661499,849.638794 
	C817.245850,849.908325 815.582825,849.929260 813.505737,849.917725 
	C814.865845,849.720215 816.639954,849.555298 818.661499,849.638794 
z"/>
<path fill="#29A472" opacity="1.000000" stroke="none" 
	d="
M619.651611,675.932861 
	C619.901550,676.396179 619.931274,676.860046 619.869995,677.660156 
	C619.535950,677.731995 619.292847,677.467407 618.942566,676.950317 
	C618.835327,676.697754 618.907227,676.296204 618.949951,676.096497 
	C618.992676,675.896790 619.431519,675.933411 619.651611,675.932861 
z"/>
<path fill="#BE983E" opacity="1.000000" stroke="none" 
	d="
M737.389038,373.026917 
	C727.934082,373.050507 718.953735,373.026031 709.549316,372.591980 
	C711.439697,367.058868 707.875244,363.314667 706.069275,359.157898 
	C731.083984,359.099548 756.098633,359.041168 781.582153,359.048706 
	C782.710388,361.916901 783.470154,364.700806 783.988342,367.528961 
	C784.261414,369.019745 784.112915,370.587738 784.148621,372.469849 
	C768.716187,372.872162 753.289917,372.925507 737.389038,373.026917 
z"/>
<path fill="#DBB761" opacity="1.000000" stroke="none" 
	d="
M862.968018,453.671143 
	C863.057983,453.844696 862.616394,453.900299 862.395142,453.880402 
	C862.173828,453.860504 862.134583,453.365112 862.250977,453.146057 
	C862.617249,453.045990 862.787415,453.236176 862.968018,453.671143 
z"/>
<path fill="#29A472" opacity="1.000000" stroke="none" 
	d="
M729.009766,608.002441 
	C729.003174,614.686218 728.996521,621.369995 728.628174,628.483398 
	C726.723694,628.916931 724.767883,628.314941 723.713074,629.034302 
	C720.047485,631.534058 716.503662,634.288269 713.261902,637.318298 
	C706.375244,643.755249 695.472473,643.802856 688.202454,637.914429 
	C684.367310,634.808105 680.796265,631.079712 674.251343,632.582886 
	C669.715576,633.624512 664.121277,631.975464 661.023499,626.996216 
	C668.477905,618.016479 675.945190,609.047363 683.371887,600.044678 
	C684.402710,598.795105 685.233582,597.380493 686.487488,595.595581 
	C693.938293,586.792786 701.058533,578.436707 708.178833,570.080688 
	C715.310669,561.716919 722.442505,553.353088 729.820251,544.722473 
	C730.366699,549.340027 730.667175,554.224365 730.497070,559.686157 
	C729.685120,561.792175 729.055176,563.319336 729.047363,564.849731 
	C728.974182,579.233643 729.007324,593.618103 729.009766,608.002441 
z"/>
<path fill="#29A472" opacity="1.000000" stroke="none" 
	d="
M659.945923,566.489136 
	C661.269226,566.674377 662.524414,567.321411 665.088684,568.643188 
	C666.820923,563.184814 668.879456,558.256470 669.851929,553.122314 
	C670.580811,549.274597 671.531311,548.703064 674.926697,550.455994 
	C677.777100,551.927490 680.993835,552.689331 684.213135,553.823364 
	C684.772095,552.634583 685.220276,551.608582 685.728699,550.613464 
	C687.371277,547.399048 688.818237,547.234314 690.870117,550.508911 
	C692.511841,553.128784 694.851318,555.311523 697.047302,558.013855 
	C695.410217,560.961731 693.606934,563.583984 691.404175,566.709839 
	C685.265259,574.106323 679.525879,580.999084 673.786499,587.891907 
	C669.417175,592.856873 665.047852,597.821838 660.396240,602.967041 
	C660.035339,591.081848 659.956604,579.016418 659.945923,566.489136 
z"/>
<path fill="#DBB761" opacity="1.000000" stroke="none" 
	d="
M674.107483,588.050171 
	C679.525879,580.999084 685.265259,574.106323 691.259644,567.038818 
	C696.780151,567.919250 702.045776,568.974426 707.745117,570.055176 
	C701.058533,578.436707 693.938293,586.792786 686.484253,595.250488 
	C682.243225,592.970947 678.335815,590.589722 674.107483,588.050171 
z"/>
<path fill="#D0AB53" opacity="1.000000" stroke="none" 
	d="
M564.973633,372.557129 
	C547.317993,372.997559 529.659119,373.035309 511.539551,373.074402 
	C494.014923,373.042389 476.950958,373.009003 459.412537,372.942139 
	C458.402618,371.739380 457.563019,370.612579 457.392517,369.392242 
	C456.989777,366.510101 455.413635,362.925690 460.867889,362.831787 
	C461.918640,362.813690 462.937286,360.933197 463.959839,359.525696 
	C497.306824,359.123169 530.664734,359.106750 564.485229,359.126038 
	C564.955383,363.492645 564.962891,367.823547 564.973633,372.557129 
z"/>
<path fill="#178862" opacity="1.000000" stroke="none" 
	d="
M508.638153,736.779785 
	C508.984619,754.411926 509.047577,772.254700 509.026001,790.562744 
	C503.301453,786.927429 497.508942,786.746277 490.722473,788.528503 
	C487.021240,789.500488 482.440582,787.084045 478.247955,786.238403 
	C475.258392,785.635437 472.788208,785.834717 471.338470,789.281128 
	C468.299591,796.505493 467.430176,796.817566 459.268616,794.957092 
	C475.357208,775.615906 491.855927,756.303101 508.638153,736.779785 
z"/>
<path fill="#1B8F64" opacity="1.000000" stroke="none" 
	d="
M438.484344,794.768982 
	C438.176941,776.587036 438.159393,758.265198 438.630219,739.477051 
	C444.014893,739.002930 448.912292,739.050537 453.806702,738.949585 
	C455.091370,738.923096 456.583282,738.768066 457.606903,738.100220 
	C461.203857,735.753357 463.749451,736.207642 467.139679,739.199158 
	C469.315399,741.118896 474.424530,742.431152 476.457214,741.172058 
	C479.666138,739.184143 482.228943,739.644043 485.237030,740.064514 
	C469.749451,758.252686 454.261841,776.440918 438.484344,794.768982 
z"/>
<path fill="#20986B" opacity="1.000000" stroke="none" 
	d="
M485.515320,739.895874 
	C482.228943,739.644043 479.666138,739.184143 476.457214,741.172058 
	C474.424530,742.431152 469.315399,741.118896 467.139679,739.199158 
	C463.749451,736.207642 461.203857,735.753357 457.606903,738.100220 
	C456.583282,738.768066 455.091370,738.923096 453.806702,738.949585 
	C448.912292,739.050537 444.014893,739.002930 438.700256,739.014526 
	C438.232788,732.325806 438.183655,725.633423 438.201538,718.477905 
	C441.135895,717.344666 443.972473,716.361511 446.877563,716.075989 
	C451.531342,715.618713 456.189606,714.572815 460.752502,717.517822 
	C462.193390,718.447754 465.542206,717.781677 467.250427,716.668457 
	C471.472961,713.916748 474.954590,715.248962 478.823181,717.205627 
	C480.486755,718.047119 482.935120,718.642761 484.551270,718.051086 
	C492.433472,715.164795 492.364471,715.020508 497.975464,721.202637 
	C498.377594,721.645691 499.142700,721.759216 500.140533,722.080322 
	C495.625916,727.998840 490.709778,733.862976 485.515320,739.895874 
z"/>
<path fill="#2FB278" opacity="1.000000" stroke="none" 
	d="
M438.616150,686.021973 
	C438.231140,679.880859 438.194458,673.743469 438.729584,667.259766 
	C445.600525,666.276855 452.434753,671.350586 458.275116,665.102722 
	C458.709198,664.638306 460.257690,664.939697 461.166992,665.245483 
	C464.371094,666.322632 467.477020,667.705994 470.706696,668.689087 
	C473.830933,669.640076 477.257751,671.332764 480.211823,670.803406 
	C492.351227,668.627869 504.115295,665.356812 509.083466,651.975281 
	C509.133545,661.008057 509.183624,670.040894 508.915497,679.680786 
	C508.752655,680.859985 508.907990,681.431946 509.063354,682.003967 
	C509.121613,682.447083 509.179871,682.890137 509.153748,683.660645 
	C508.665527,690.985962 503.932404,691.764038 498.169861,693.578491 
	C491.674774,695.623657 487.379456,690.559448 481.742920,691.350403 
	C476.901184,692.029846 471.740967,691.383118 467.158539,692.768311 
	C457.977356,695.543579 449.778534,695.669556 442.658600,688.232300 
	C441.702301,687.233337 440.209106,686.748474 438.616150,686.021973 
z"/>
<path fill="#2FB278" opacity="1.000000" stroke="none" 
	d="
M619.344849,550.012939 
	C619.780701,562.706970 619.852112,575.401062 619.487183,588.563965 
	C617.944702,589.880066 616.268188,590.502441 615.830200,591.613159 
	C613.826111,596.695679 610.763367,600.380005 605.139282,601.472656 
	C604.365356,601.623047 603.648315,602.199585 602.966370,602.668213 
	C598.350037,605.840637 590.760864,605.078674 587.479309,600.655701 
	C584.567322,596.730896 580.803955,595.812439 576.600525,597.021179 
	C572.434753,598.218994 568.566162,600.431152 564.417480,601.714600 
	C561.575317,602.593872 558.451599,602.518311 555.501404,603.108154 
	C553.329346,603.542480 551.234436,604.362610 549.105103,605.010803 
	C549.044006,602.627441 548.982849,600.244141 549.396606,597.316772 
	C550.070190,590.396606 550.280945,584.020569 550.411560,577.642944 
	C550.415649,577.444946 549.590332,577.229858 549.151733,577.022705 
	C549.089233,572.657898 549.026733,568.293030 549.044739,563.470154 
	C549.749817,564.676758 550.661804,566.297424 550.924622,568.017395 
	C551.239136,570.075378 550.998840,572.218140 550.998840,575.099426 
	C554.286438,573.216919 556.647827,571.317383 559.340637,570.465210 
	C562.508667,569.462585 565.962341,569.355530 569.296875,568.894409 
	C569.780151,568.827576 570.372375,569.138794 570.775208,568.960632 
	C578.238342,565.661865 584.824036,569.513672 591.740601,571.235413 
	C593.529968,571.680786 595.962830,570.569946 597.794983,569.598511 
	C601.536682,567.614624 605.168701,565.379822 608.644165,562.958923 
	C610.090454,561.951416 611.091309,560.254944 612.171387,558.781433 
	C614.360657,555.794617 613.623230,550.546143 619.344849,550.012939 
z"/>
<path fill="#BE983E" opacity="1.000000" stroke="none" 
	d="
M379.925171,756.454346 
	C382.661346,755.996277 385.337128,756.198059 387.972534,755.957458 
	C392.025726,755.587585 393.099518,757.416565 393.044495,761.206665 
	C392.880463,772.499817 393.012268,783.797241 392.994080,795.564331 
	C391.096222,795.307678 388.705261,795.065857 387.486847,793.743591 
	C385.400055,791.478760 383.299805,791.154297 380.286835,791.952087 
	C379.873016,786.283142 379.829285,780.597656 380.134949,774.275269 
	C380.340790,772.771790 380.197296,771.905273 380.053802,771.038696 
	C379.984772,766.331116 379.915710,761.623535 379.925171,756.454346 
z"/>
<path fill="#DBB761" opacity="1.000000" stroke="none" 
	d="
M393.634766,835.031616 
	C393.841766,835.045898 393.922760,835.208008 394.069672,835.634033 
	C393.926697,835.658508 393.717743,835.419006 393.634766,835.031616 
z"/>
<path fill="#29A472" opacity="1.000000" stroke="none" 
	d="
M549.025085,605.472778 
	C551.234436,604.362610 553.329346,603.542480 555.501404,603.108154 
	C558.451599,602.518311 561.575317,602.593872 564.417480,601.714600 
	C568.566162,600.431152 572.434753,598.218994 576.600525,597.021179 
	C580.803955,595.812439 584.567322,596.730896 587.479309,600.655701 
	C590.760864,605.078674 598.350037,605.840637 602.966370,602.668213 
	C603.648315,602.199585 604.365356,601.623047 605.139282,601.472656 
	C610.763367,600.380005 613.826111,596.695679 615.830200,591.613159 
	C616.268188,590.502441 617.944702,589.880066 619.407104,589.027832 
	C619.865356,609.327148 619.967285,629.631470 620.127258,650.389526 
	C615.917236,655.632324 611.649231,660.421326 607.139587,665.419922 
	C590.088135,672.862427 573.283813,680.108337 556.461853,687.313049 
	C554.190857,688.285645 551.830750,689.050415 549.234741,689.750366 
	C548.953430,661.704407 548.949219,633.819580 549.025085,605.472778 
z"/>
<path fill="#20986B" opacity="1.000000" stroke="none" 
	d="
M660.752625,627.174805 
	C664.121277,631.975464 669.715576,633.624512 674.251343,632.582886 
	C680.796265,631.079712 684.367310,634.808105 688.202454,637.914429 
	C695.472473,643.802856 706.375244,643.755249 713.261902,637.318298 
	C716.503662,634.288269 720.047485,631.534058 723.713074,629.034302 
	C724.767883,628.314941 726.723694,628.916931 728.625183,628.951294 
	C728.983948,644.424866 728.983948,659.860168 728.983948,674.856140 
	C718.554077,679.950623 708.674133,684.618652 698.956177,689.602478 
	C695.165161,691.546631 691.992615,692.304138 687.808472,690.126770 
	C683.788696,688.034790 679.098206,686.638977 674.603394,686.316223 
	C672.525940,686.166992 670.051941,689.127808 668.060669,691.000610 
	C666.623840,692.351990 665.687012,694.234985 664.527161,695.880920 
	C663.266907,694.640869 662.006653,693.400818 660.394897,692.091553 
	C659.938904,671.584839 659.834412,651.147461 659.663208,630.211182 
	C659.891479,628.926025 660.186584,628.139648 660.752625,627.174805 
z"/>
<path fill="#D0AB53" opacity="1.000000" stroke="none" 
	d="
M843.460449,451.150208 
	C843.158203,451.738800 842.988586,451.977448 842.675110,452.381653 
	C842.312744,452.740662 842.094727,452.938385 841.721313,453.291840 
	C833.028931,455.001740 830.093384,452.673340 830.049011,444.300476 
	C830.037598,442.158203 830.047241,440.015839 830.099731,437.408508 
	C837.118958,437.678589 842.702942,442.063660 843.561401,447.551086 
	C843.731873,448.811127 843.667114,449.808990 843.460449,451.150208 
z"/>
<path fill="#DBB761" opacity="1.000000" stroke="none" 
	d="
M813.935669,415.484558 
	C813.862610,415.648834 813.680725,415.690399 813.232666,415.644226 
	C813.205811,415.264832 813.492493,415.199951 813.935669,415.484558 
z"/>
<path fill="#A57C19" opacity="1.000000" stroke="none" 
	d="
M494.590881,849.616089 
	C487.920471,849.924805 480.947693,849.965698 473.511353,849.977966 
	C480.128021,849.748962 487.208282,849.548645 494.590881,849.616089 
z"/>
<path fill="#DBB761" opacity="1.000000" stroke="none" 
	d="
M572.037964,836.542114 
	C579.327759,836.147949 586.687439,836.113708 594.511230,836.133057 
	C596.615845,838.103333 597.898315,840.745361 599.978210,841.772278 
	C603.364563,843.444153 604.464111,845.666565 603.982666,849.511414 
	C593.616150,849.944031 583.263794,849.970154 572.440979,849.958191 
	C572.613708,845.587097 576.078735,841.283813 572.037964,836.542114 
z"/>
<path fill="#DBB761" opacity="1.000000" stroke="none" 
	d="
M625.757935,849.692444 
	C625.218079,849.936523 624.501587,849.948853 623.428040,849.938721 
	C623.907776,849.764404 624.744507,849.612549 625.757935,849.692444 
z"/>
<path fill="#E3C26F" opacity="1.000000" stroke="none" 
	d="
M651.054688,373.039124 
	C636.331970,373.485901 621.584534,373.580750 606.378479,373.531555 
	C606.276001,368.893250 606.632141,364.399048 606.971008,359.513794 
	C619.003174,359.098846 631.052673,359.074890 643.574097,359.090210 
	C644.972107,361.054932 645.851990,363.004272 646.835327,364.899994 
	C648.192688,367.516876 649.628052,370.093353 651.054688,373.039124 
z"/>
<path fill="#D0AB53" opacity="1.000000" stroke="none" 
	d="
M705.597412,359.100433 
	C707.875244,363.314667 711.439697,367.058868 709.084351,372.559418 
	C700.013428,372.962769 690.983459,372.989105 681.487671,372.990356 
	C681.467896,369.571472 682.299438,366.187164 678.815063,363.572510 
	C678.055725,363.002747 678.251526,361.160156 678.024231,359.512329 
	C687.069214,359.094910 696.097351,359.068939 705.597412,359.100433 
z"/>
<path fill="#29A472" opacity="1.000000" stroke="none" 
	d="
M549.067871,577.482666 
	C549.590332,577.229858 550.415649,577.444946 550.411560,577.642944 
	C550.280945,584.020569 550.070190,590.396606 549.488342,596.878418 
	C549.064819,590.636841 549.024475,584.289673 549.067871,577.482666 
z"/>
<path fill="#20986B" opacity="1.000000" stroke="none" 
	d="
M729.305847,608.004150 
	C729.007324,593.618103 728.974182,579.233643 729.047363,564.849731 
	C729.055176,563.319336 729.685120,561.792175 730.397339,560.143921 
	C730.842651,575.714539 730.916992,591.404785 730.888977,607.555176 
	C730.391663,608.012268 729.996826,608.009094 729.305847,608.004150 
z"/>
<path fill="#36BA7D" opacity="1.000000" stroke="none" 
	d="
M509.164185,651.529480 
	C504.115295,665.356812 492.351227,668.627869 480.211823,670.803406 
	C477.257751,671.332764 473.830933,669.640076 470.706696,668.689087 
	C467.477020,667.705994 464.371094,666.322632 461.166992,665.245483 
	C460.257690,664.939697 458.709198,664.638306 458.275116,665.102722 
	C452.434753,671.350586 445.600525,666.276855 438.803192,666.845703 
	C438.650208,657.442200 438.995422,648.106506 439.157227,638.373657 
	C439.387146,637.879456 439.800507,637.782593 440.095947,637.328125 
	C440.581665,636.866150 441.185272,636.761780 441.881775,636.310425 
	C449.210114,635.637573 456.442993,635.130249 463.681580,635.027893 
	C474.777802,634.870850 485.878052,634.980286 496.976532,634.999878 
	C506.175049,635.016113 509.135223,637.952271 509.240814,647.108582 
	C509.256104,648.433472 509.244202,649.758667 509.164185,651.529480 
z"/>
<path fill="#29A472" opacity="1.000000" stroke="none" 
	d="
M509.136719,681.671936 
	C508.907990,681.431946 508.752655,680.859985 508.827240,680.142456 
	C509.108154,680.444641 509.159119,680.892273 509.136719,681.671936 
z"/>
<path fill="#BE983E" opacity="1.000000" stroke="none" 
	d="
M800.235107,401.283051 
	C800.483582,401.130463 800.925903,401.215607 801.465515,401.631287 
	C801.184814,401.814758 800.806885,401.667755 800.235107,401.283051 
z"/>
<path fill="#A57C19" opacity="1.000000" stroke="none" 
	d="
M379.979065,771.403687 
	C380.197296,771.905273 380.340790,772.771790 380.241760,773.817200 
	C379.967590,773.253601 379.935974,772.511108 379.979065,771.403687 
z"/>
<path fill="#29A472" opacity="1.000000" stroke="none" 
	d="
M659.969116,537.496094 
	C660.492065,537.220154 661.342163,537.412781 661.338501,537.587463 
	C661.210632,543.655701 661.002380,549.722229 660.414307,555.880127 
	C659.981506,549.966309 659.939819,543.961304 659.969116,537.496094 
z"/>
</svg>